<svg width="167" height="56" xmlns="http://www.w3.org/2000/svg" xmlns:xlink="http://www.w3.org/1999/xlink">
 <defs>
  <polygon points="39.326 .521 39.326 37.03 .708 37.03 .708 .521" id="gia-logo-a"/>
  <polygon points="0 55.131 0 27.618 0 .105 55.044 .105 55.044 55.131" id="gia-logo-c"/>
 </defs>
 <g>
  <title>background</title>
  <rect fill="none" id="canvas_background" height="402" width="582" y="-1" x="-1"/>
 </g>
 <g>
  <title>Layer 1</title>
  <g id="svg_1" fill-rule="evenodd" fill="none">
   <g stroke="null" id="svg_2">
    <path stroke="null" id="svg_3" d="m152.72576,13.663836c-1.536822,0 -2.9485,-1.25606 -2.9485,-3.08272c0,-1.77704 1.363218,-3.08456 2.9485,-3.08456c1.660182,0 2.964353,1.34335 2.964353,3.09283c0,1.64473 -1.245132,3.07445 -2.964353,3.07445zm0,-5.88887c-1.460157,0 -2.682378,1.23033 -2.682378,2.80615c0,1.585 1.212535,2.80614 2.691182,2.80614c1.552675,0 2.690309,-1.29924 2.690309,-2.79787c0,-1.55836 -1.146438,-2.81442 -2.699113,-2.81442zm-0.032607,0.84074c0.382443,0 0.648565,0.00736 0.873267,0.09373c0.405355,0.14793 0.595694,0.53844 0.595694,0.90138c0,0.2683 -0.100459,0.74426 -0.76224,0.91701c0.357767,0.1562 0.462628,0.38223 0.531362,0.81501c0.074028,0.53752 0.116321,0.81318 0.281102,1.16234l-0.755191,0c-0.10838,-0.22788 -0.125125,-0.37397 -0.200026,-0.85085c-0.12337,-0.82237 -0.173595,-0.89955 -1.112076,-0.89955l0,1.7504l-0.66531,0l0,-3.88947l1.213417,0zm-0.540175,1.58317l0.547224,0c0.275818,0 0.799249,0 0.799249,-0.53568c0,-0.15621 -0.067852,-0.36478 -0.266122,-0.46034c-0.133948,-0.05054 -0.249377,-0.05054 -0.656497,-0.05054l-0.423854,0l0,1.04656z" fill="#000"/>
    <g stroke="null" id="svg_4">
     <mask stroke="null" transform="translate(63.400001525878906,0) translate(64.31900024414062,8.312999725341797) translate(65.0537109375,8.83407974243164) scale(0.9590332508087158,1) translate(-65.0537109375,-8.83407974243164) " id="gia-logo-b">
      <use stroke="null" id="svg_5" xlink:href="#gia-logo-a"/>
     </mask>
     <path stroke="null" id="svg_6" mask="url(#gia-logo-b)" d="m152.370419,44.62667c-0.185045,-0.53568 -0.394776,-1.25422 -0.394776,-1.25422l-3.599703,-9.94831c-0.089881,-0.2196 -0.240564,-0.32894 -0.450295,-0.32894l-10.035113,0c-0.179761,0 -0.314592,0.12496 -0.405355,0.37397l-2.429471,6.71122c-0.450285,1.15866 -0.675879,2.1115 -0.675879,2.86403c0,0.46678 0.135703,0.82696 0.405355,1.07781c0.270524,0.25084 0.734044,0.37488 1.395825,0.37488l0.674114,0c0.450295,0 0.675879,0.1268 0.675879,0.37673c0,0.31241 -0.256426,0.46953 -0.765759,0.46953c-0.570136,0 -1.37908,-0.01746 -2.429471,-0.04778c-1.171114,-0.06248 -1.950098,-0.09464 -2.341355,-0.09464c-0.088998,0 -0.419443,0.01562 -0.989588,0.04778c-0.449413,0 -1.0874,0.01562 -1.91308,0.04686c-0.823925,0.03032 -1.627585,0.04778 -2.407442,0.04778c-0.570136,0 -0.853885,-0.15712 -0.853885,-0.46953c0,-0.24993 0.178888,-0.37673 0.537529,-0.37673c0.450295,0 0.917334,-0.0294 1.396707,-0.0928c0.958746,-0.12496 1.710407,-0.52282 2.250583,-1.19725c0.540175,-0.67167 1.06538,-1.68148 1.573831,-3.02667l11.29699,-29.46912c0.270524,-0.71945 0.495235,-1.21195 0.674996,-1.47842c0.179771,-0.26646 0.375394,-0.39877 0.584243,-0.39877c0.332209,0 0.705839,0.50076 1.126174,1.5023c0.209721,0.46861 0.660016,1.61073 1.34911,3.42545l2.700005,7.08519l4.298493,11.14557l1.193152,3.09649l1.619644,4.10631c0.750779,1.87628 1.440765,3.1599 2.069057,3.84903c0.631821,0.68638 1.261877,1.10905 1.89106,1.26617c0.600096,0.12404 1.230152,0.18652 1.889296,0.18652c0.391247,0 0.585998,0.1268 0.585998,0.37673c0,0.18744 -0.13483,0.31241 -0.404472,0.37489c-0.270534,0.06248 -0.824807,0.09464 -1.665476,0.09464l-4.294963,-0.10199c-1.275102,0 -2.555488,0.10015 -3.526567,0.10015c-0.274053,0 -0.421217,-0.17917 -0.60539,-0.71486m-13.580179,-13.87728l8.280638,0c0.149811,0 0.224711,-0.09464 0.224711,-0.283l-4.049997,-11.59028l0,-0.04595c-0.059038,-0.25084 -0.133948,-0.37764 -0.224711,-0.37764c-0.120723,0 -0.209721,0.14334 -0.270524,0.42359l-4.139878,11.54342c0,0.2196 0.05992,0.32986 0.179761,0.32986" fill="#000"/>
    </g>
    <polyline stroke-linecap="round" id="svg_60" points="120.05988608126522,10.681058980033711 120.05988608126522,10.681058980033711 120.05988608126522,10.681058980033711 120.6169891639369,10.681058980033711 120.6169891639369,10.820334750701633 120.75626493460483,10.820334750701633 121.03481647594067,10.820334750701633 121.1740922466086,10.820334750701633 121.31336801727652,10.959610521369555 121.59191955861236,10.959610521369555 121.73119532928027,10.959610521369555 121.73119532928027,10.959610521369555 121.8704710999482,10.959610521369555 122.00974687061613,10.959610521369555 122.14902264128405,10.959610521369555 122.28829841195197,10.959610521369555 122.56684995328781,11.098886292037477 122.70612572395574,11.098886292037477 122.84540149462366,11.098886292037477 122.98467726529157,11.098886292037477 123.1239530359595,11.098886292037477 123.40250457729535,11.098886292037477 123.54178034796327,11.238162062705399 123.68105611863119,11.37743783337332 123.82033188929911,11.37743783337332 123.95960765996705,11.516713604041243 124.09888343063496,11.516713604041243 124.23815920130288,11.516713604041243 124.51671074263872,11.516713604041243 124.51671074263872,11.655989374709163 124.65598651330664,11.655989374709163 124.79526228397457,11.655989374709163 125.07381382531041,11.93454091604501 125.6309169079821,12.07381668671293 125.77019267865002,12.213092457380853 126.04874421998586,12.491643998716697 126.18801999065379,12.491643998716697 126.18801999065379,12.630919769384619 126.46657153198962,12.77019554005254 126.74512307332547,13.048747081388385 126.8843988439934,13.188022852056307 127.16295038532924,13.188022852056307 127.30222615599716,13.46657439339215 127.4415019266651,13.605850164060072 127.580777697333,13.745125934727994 127.85932923866885,14.023677476063838 127.99860500933677,14.16295324673176 128.13788078000468,14.302229017399682 128.41643232134052,14.441504788067604 128.41643232134052,14.580780558735524 128.69498386267637,14.859332100071372 128.9735354040122,15.137883641407214 129.25208694534805,15.416435182743058 129.66991425735182,15.55571095341098 129.80919002801974,15.973538265414746 130.0877415693556,16.112814036082668 130.0877415693556,16.39136557741851 130.64484465202727,17.08774443075812 130.92339619336312,17.366295972093965 131.34122350536688,18.062674825433575 131.75905081737065,18.759053678773185 131.89832658803857,19.316156761444873 132.31615390004234,20.012535614784483 132.59470544137818,20.987466009459936 132.87325698271403,21.544569092131624 133.01253275338195,22.101672174803312 133.15180852404987,22.658775257475 133.4303600653857,23.215878340146688 133.56963583605364,24.330084505490067 133.70891160672156,25.026463358829673 133.70891160672156,26.001393753505127 133.84818737738948,26.558496836176815 133.84818737738948,27.394151460184347 133.56963583605364,28.22980608419188 133.4303600653857,29.06546070819941 133.15180852404987,29.76183956153902 132.7339812120461,30.876045726882396 132.45542967071026,31.572424580222005 131.89832658803857,32.54735497489746 131.34122350536688,33.24373382823707 130.64484465202727,34.21866422291252 129.5306384866839,35.47214615892382 128.9735354040122,36.30780078293136 128.41643232134052,37.00417963627096 127.85932923866885,37.70055848961057 127.16295038532924,38.39693734295018 126.60584730265755,39.23259196695771 126.60584730265755,39.371867737625635 126.18801999065379,40.068246590965245 125.90946844931794,40.48607390296901 125.6309169079821,40.62534967363693 125.07381382531041,41.04317698564069 124.65598651330664,41.461004297644465 124.09888343063496,41.73955583898031 123.95960765996705,42.01810738031615 123.54178034796327,42.15738315098407 123.26322880662742,42.15738315098407 122.84540149462366,42.296658921651996 122.56684995328781,42.43593469231992 122.28829841195197,42.43593469231992 122.00974687061613,42.43593469231992 121.73119532928027,42.57521046298784 121.45264378794444,42.71448623365576 121.1740922466086,42.71448623365576 120.6169891639369,42.71448623365576 120.33843762260106,42.71448623365576 119.9206103105973,42.993037774991606 119.50278299859352,43.27158931632746 118.94567991592184,43.41086508699537 118.667128374586,43.550140857663294 118.38857683325016,43.689416628331216 118.38857683325016,43.82869239899914 " opacity="0.5" fill-opacity="null" stroke-opacity="null" stroke-width="null" stroke="null" fill="none"/>
    <text stroke="null" transform="matrix(1.8654199191217913,0,0,2.0817560099196526,-65.09421987023478,12.629151194677728) " xml:space="preserve" text-anchor="start" font-family="'Times New Roman', Times, serif" font-size="24" id="svg_61" y="15.483338" x="65.303016" fill-opacity="null" stroke-opacity="null" stroke-width="0" fill="#000000">GDA</text>
   </g>
   <polygon id="svg_8" points="37.244 14.097 38.578 13.384 38.18 13.106 37.309 13.623 37.486 12.622 37.088 12.345 36.881 13.843 36.344 14.612 36.707 14.866" fill="#A8996E"/>
   <path id="svg_9" d="m30.05295,11.1858l0.31609,0.05513l0.28392,0.97489l0.51087,0.08821l-0.33537,-1.05851c0.05788,-0.01011 0.11485,-0.02756 0.16998,-0.05329c0.05513,-0.02665 0.10659,-0.06064 0.15345,-0.10475c0.04686,-0.04227 0.08637,-0.09372 0.11945,-0.15345c0.03308,-0.05972 0.05605,-0.12863 0.07075,-0.20857c0.01562,-0.09556 0.01562,-0.18745 -0.00368,-0.27657c-0.01837,-0.08821 -0.05329,-0.16999 -0.10566,-0.2435c-0.05238,-0.07259 -0.12129,-0.13599 -0.2049,-0.18836c-0.08454,-0.05237 -0.18377,-0.08913 -0.29771,-0.10842l-0.88301,-0.15253l-0.38867,2.253l0.43921,0.07535l0.15528,-0.89863zm0.16631,-0.96203l0.4144,0.07259c0.09648,0.01654 0.16999,0.05697 0.21869,0.12129c0.04869,0.06523 0.06523,0.14242 0.04961,0.23062c-0.01562,0.08913 -0.05605,0.15621 -0.12496,0.20123c-0.06707,0.04411 -0.14977,0.05881 -0.24625,0.04135l-0.41532,-0.07167l0.10383,-0.59541z" fill="#A8996E"/>
   <polygon id="svg_10" points="40.271 15.408 39.172 15.347 39.112 16.447 40.21 16.507" fill="#A8996E"/>
   <polygon id="svg_11" points="11.79 26.357 11.394 26.343 11.359 27.402 10.805 27.384 10.834 26.483 10.436 26.47 10.407 27.371 9.872 27.354 9.905 26.296 9.508 26.283 9.459 27.787 11.743 27.86" fill="#A8996E"/>
   <polygon id="svg_12" points="29.36 36.034 29.157 36.576 32.573 36.576 32.458 36.034" fill="#A8996E"/>
   <polygon id="svg_13" points="34.483 13.528 35.294 11.824 35.833 12.08 36.004 11.721 34.522 11.016 34.351 11.375 34.891 11.632 34.08 13.337" fill="#A8996E"/>
   <polygon id="svg_14" points="36.848 40.396 37.099 40.704 37.92 40.036 38.269 40.465 37.572 41.036 37.823 41.345 38.522 40.775 38.86 41.189 38.04 41.859 38.29 42.167 39.456 41.216 38.014 39.446" fill="#A8996E"/>
   <polygon id="svg_15" points="41.658 20.647 41.859 21.117 42.764 21.211 42.203 21.931 42.403 22.4 43.204 21.287 44.489 21.463 44.292 20.999 43.456 20.918 43.979 20.263 43.782 19.795 43.015 20.844" fill="#A8996E"/>
   <g id="svg_16" fill="#A8996E">
    <path id="svg_17" d="m38.36172,19.69311l-0.01929,-0.09923l-21.71869,0l-0.01745,0.10107c-0.00827,0.04135 -0.72405,4.257 0.25268,9.05703c0.90414,4.43985 3.47874,10.30482 10.61722,13.03011l0.04319,0.01746l0.04502,-0.01838c7.23773,-2.82728 9.78751,-8.68674 10.65306,-13.10453c0.93539,-4.77615 0.15253,-8.94218 0.14426,-8.98353zm-8.34033,8.45887c0.04135,0.02756 0.09464,0.02756 0.10291,0.07534c0.00735,0.04594 0.07259,0.11118 0.09923,0.17091c0.01746,0.03767 0.05238,0.05329 0.03859,0.07994c-0.00826,0.01745 -0.08085,0.0882 -0.11118,0.09647c-0.01653,0.00368 -0.04869,-0.03216 -0.11301,-0.01562c-0.05605,0.01562 -0.18745,0.00276 -0.21685,0.03768c-0.02113,0.02389 -0.10659,0.04869 -0.15804,0.06064c-0.03859,-0.16723 -0.0781,-0.33722 -0.12129,-0.51271c0.15069,-0.0193 0.29863,-0.03768 0.44656,-0.05422c0.00827,0.02298 0.0193,0.05238 0.03308,0.06157zm-7.83405,0.18836c-0.00735,0.16723 -0.31241,0.24533 -0.17275,0.3611c0.12405,0.10383 0.03216,0.19939 -0.07442,0.31517l-0.61287,0c-0.00919,-0.16999 -0.01562,-0.33997 -0.01746,-0.50628c0.27198,-0.12037 0.55866,-0.2389 0.85636,-0.35376c0.00827,0.05513 0.02205,0.15529 0.02114,0.18377zm12.34557,0.1121c0.0101,0.06064 0.07534,0.12588 0.08729,0.2049c0.02113,0.13875 -0.01654,0.29127 -0.03492,0.33078c-0.00459,0.00919 -0.00735,0.0193 -0.00919,0.02849l-1.04105,0c-0.02113,-0.11394 -0.04502,-0.22788 -0.06891,-0.34089c-0.03124,-0.14242 -0.06524,-0.28576 -0.10199,-0.43002c0.07442,0.0147 0.20214,0.0487 0.22328,0.0974c0.01745,0.03859 -0.02573,0.09464 0.00459,0.11301c0.034,0.02022 0.06799,0.04043 0.10567,0.06065c0.03583,0.02113 -0.0046,0.07167 0.03951,0.09096c0.06064,0.02665 0.05788,-0.00092 0.11577,0.03951c0.12313,0.08821 0.1461,-0.12496 0.1755,-0.1415c0.08178,-0.04686 0.1415,0.04962 0.23522,0.0487c0.05789,-0.00092 0.14242,-0.13875 0.21777,-0.19939c0.02573,-0.02113 0.04962,-0.03308 0.07167,-0.02848c0.01838,0.00459 -0.03124,0.06891 -0.02021,0.12588zm-10.40498,0.13966c-0.07259,-0.04135 -0.21776,0.00092 -0.2977,-0.01562c-0.00552,-0.00092 -0.15896,-0.0781 -0.21777,-0.11302c-0.01562,-0.0101 -0.00092,-0.02389 0.01103,-0.0294c0.02205,-0.01011 0.04778,-0.0294 0.05605,-0.03124c0.01378,-0.00367 -0.02665,-0.07626 -0.05054,-0.0928c-0.02297,-0.01562 -0.03859,-0.04778 -0.05697,-0.07627c-0.02297,-0.03399 -0.05237,-0.07626 -0.05421,-0.0781c-0.04686,-0.09004 0.00368,-0.14885 -0.12772,-0.15896c-0.0294,-0.00184 -0.16815,0.22604 -0.27014,0.23155c-0.0147,-0.13691 -0.02848,-0.27198 -0.03859,-0.40429c0.78102,-0.25911 1.02267,-0.32986 1.69435,-0.51915c0.0735,0.47413 0.16171,0.96571 0.26003,1.46556c-0.25268,0.06983 -0.50169,0.1415 -0.74978,0.21593c0.02114,-0.04319 0.04594,-0.11302 0.04503,-0.13048c-0.00092,-0.05881 -0.17734,-0.24717 -0.20307,-0.26371zm-3.68088,-0.94181c0,0.01378 -0.05421,0.00919 -0.07351,0.00919c-0.0193,0 -0.034,0.0101 -0.03859,0.02481c-0.0046,0.0147 -0.00551,0.0588 -0.00092,0.0928c0.00551,0.034 -0.12129,0.22144 -0.14058,0.23706c-0.0147,0.01103 -0.08821,0.01562 -0.14702,0.00368c0.02941,-0.15529 0.06248,-0.30782 0.10016,-0.45759c0.06891,-0.04043 0.14058,-0.08086 0.21317,-0.12129c0.13323,0.06432 0.08729,0.20031 0.08729,0.21134zm-0.2049,-0.4337c0.07075,-0.22971 0.1516,-0.45207 0.24165,-0.66708c0.05513,0.06249 0.15345,0.12497 0.13231,0.22053c-0.01745,0.0781 -0.08361,0.11853 -0.10474,0.19295c-0.01562,0.05697 -0.03032,0.08729 -0.06065,0.14059c-0.07075,0.03767 -0.14058,0.07534 -0.20857,0.11301zm1.05023,-1.2634c-0.06615,0.04686 -0.02389,0.0735 -0.13231,0.1268c-0.01378,0.00643 -0.1608,0.19571 -0.13139,0.249c0.0294,0.05421 -0.07167,0.27933 -0.01103,0.31333c0.05972,0.034 -0.03767,0.11393 -0.03767,0.12864c-0.00092,0.0147 -0.14059,-0.00184 -0.17366,-0.05513c-0.07994,-0.1268 0.03124,-0.25452 0.01562,-0.29403c-0.02665,-0.06708 -0.13875,-0.14059 -0.21134,-0.15253c0.02573,-0.05421 0.05238,-0.10751 0.07994,-0.1608c0.23522,-0.13966 0.49985,-0.27841 0.78929,-0.41624c-0.02941,0.0827 -0.05789,0.16723 -0.08454,0.25269c-0.02756,-0.00827 -0.05788,-0.02206 -0.10291,0.00827zm0.50537,-0.40613c0.30965,-0.13691 0.65146,-0.2729 1.0144,-0.40705c0.03583,-0.01194 0.07075,-0.02481 0.10567,-0.03767c-0.06065,0.30965 -0.10383,0.64503 -0.12772,1.00154c-0.04962,0.01745 -0.09832,0.03583 -0.14886,0.05329c-0.04686,-0.04135 -0.05513,-0.12772 -0.07626,-0.15345c-0.03767,-0.04594 -0.10567,-0.01929 -0.13323,-0.03124c-0.03308,-0.01562 -0.03216,-0.06983 -0.07259,-0.06983c-0.02113,0 -0.1562,-0.04043 -0.2196,-0.07994c-0.04411,-0.02848 -0.24993,-0.14334 -0.29403,-0.14058c-0.04135,0.00275 -0.07719,0.01654 -0.11026,0.03583c0.01837,-0.05237 0.03951,-0.10842 0.06248,-0.1709zm-0.01195,2.47628c-0.034,0.01286 -0.06799,0.02664 -0.10107,0.04043c0.00092,-0.1314 0.02848,-0.08454 0.04778,-0.17366c0.00551,-0.02481 -0.11486,-0.05973 -0.1461,-0.08362c-0.14793,-0.11302 -0.08545,-0.28392 -0.04778,-0.32803c0.03768,-0.0441 0.30322,-0.28208 0.22236,-0.317c-0.16171,-0.07167 0.1314,-0.38683 0.23155,-0.34732c0.09924,0.04043 0.21501,-0.19571 0.32987,-0.15896c0.11577,0.03676 0.07442,0.04503 0.10291,0.13232c0.01654,0.05329 -0.0193,0.12036 -0.02665,0.16814c-0.01011,0.05422 -0.10199,0.07259 -0.07902,0.16172c0.02297,0.08821 -0.23614,0.40153 -0.26371,0.41715c-0.05329,0.03033 -0.0588,0.2288 0.0634,0.17183c0.10291,-0.04686 0.15253,0.09004 0.17183,0.11945c-0.17183,0.06524 -0.3409,0.13047 -0.50537,0.19755zm1.91854,-3.00002c0.00827,0.0441 0.03952,0.09464 0.04411,0.12772c0.00367,0.03675 0.05054,0.06983 0.06156,0.06523c0.01746,-0.00735 0.03308,-0.01378 0.04686,-0.01929c0.05973,-0.02481 0.07351,0.02481 0.13599,0.01929c0.01287,-0.00183 0.04594,0.01287 0.0781,0.02941c0.03951,0.02021 0.02665,0.08361 0.0046,0.11118c-0.02297,0.02756 -0.04319,0.05421 -0.0634,0.05788c-0.1415,0.02573 -0.28301,-0.05696 -0.23615,0.20858c0.00919,0.05605 0.034,0.10842 0.0634,0.13967c-0.24808,0.07442 -0.4539,0.14242 -0.7755,0.24808c0.02665,-0.36202 0.07259,-0.70107 0.13875,-1.00705c0.23798,-0.07902 0.41256,-0.13599 0.56784,-0.18469c-0.04135,0.06524 -0.07718,0.15069 -0.06616,0.20399zm10.44081,2.58746c-0.1369,-0.02849 -0.21225,0.03951 -0.28668,0.10567c-0.16263,-0.01471 -0.33078,-0.02757 -0.50536,-0.03584c0.00092,-0.00459 0.00184,-0.00827 0.0046,-0.01286c0.06248,-0.16264 -0.00184,-0.34916 0.06983,-0.52191c0.01746,-0.04318 0.10291,-0.12404 0.16539,-0.1121c0.02665,0.0046 0.04043,0.068 0.08821,0.09281c0.01746,0.00919 0.034,0.0487 0.0441,0.08821c0.0046,0.01745 0.05421,-0.01011 0.08821,0.00459c0.05054,0.02205 0.12313,0.068 0.15896,0.04043c0.06616,-0.0487 0.1415,-0.11026 0.18836,-0.12864c0.00368,-0.00184 0.00827,-0.00275 0.01195,-0.00367c0.06432,0.15161 0.12404,0.30505 0.18101,0.46126c-0.06616,0.00459 -0.15528,0.03307 -0.20858,0.02205zm-1.8092,0.86187c0.00184,-0.01562 0.04686,0.0147 0.09832,-0.00092c0.02205,-0.00735 0.02848,-0.06891 0.0294,-0.06891c-0.04502,-0.03032 -0.18101,-0.05421 -0.28484,-0.0974c-0.02481,-0.01102 -0.01194,-0.05053 -0.03859,-0.0588c-0.11026,-0.03768 -0.21777,-0.04686 -0.2536,-0.08821c-0.05973,-0.07075 -0.04411,-0.17458 0.04502,-0.17826c0.07167,0.0046 0.24625,0.06157 0.3703,0.10108c-0.00736,-0.00184 0.19663,-0.00644 0.19663,0c0.0294,0.03307 0.01929,0.19847 0.06983,0.20949c0.08821,0.02114 0.09832,0.10107 0.14977,0.16631c0.02389,0.03124 0.07627,0.0193 0.11669,0.05881c0.06432,0.06156 0.11853,0.17642 0.15345,0.2242c0.07167,0.09739 0.17458,0.06615 0.22971,0.04226c0.01654,0.07719 0.03308,0.15529 0.04778,0.23431l-0.94089,0c-0.01195,-0.03492 -0.02665,-0.08454 -0.01746,-0.10934c0.00643,-0.01563 0.034,-0.02114 0.04043,-0.04135c0.01746,-0.05238 0.06248,-0.10291 0.07167,-0.16999c0.00551,-0.05145 -0.09005,-0.17642 -0.08362,-0.22328zm-1.6824,-2.05453c0.13048,0.17917 0.11853,0.1755 -0.05237,0.26738c-0.06524,0.034 -0.23982,0.13599 -0.23614,0.23063c0.00275,0.0781 0.08912,0.12405 -0.02206,0.1608c-0.04502,0.0147 -0.20857,0.16264 -0.249,0.06891c-0.02941,-0.06615 0.03307,-0.15804 -0.00552,-0.22144c-0.01654,-0.0294 -0.07626,-0.03399 -0.11118,-0.01654c-0.01378,0.00735 -0.02664,-0.0101 -0.03399,-0.03032c-0.06065,-0.15436 -0.40429,-0.27565 -0.50169,-0.36294c-0.03584,-0.03308 -0.03032,-0.07351 -0.0193,-0.11486c0.4925,-0.05605 0.736,-0.07534 1.24963,-0.11485c0.00276,0.00827 0.00459,0.01562 0.00827,0.02297c0.00827,0.04502 -0.05146,0.07443 -0.02665,0.11026zm-3.86189,0.40337c0.10934,0.45483 0.22236,0.94182 0.33721,1.44994c-0.61195,0.12496 -1.22298,0.2683 -1.82114,0.42634c-0.102,-0.52007 -0.19021,-1.01257 -0.26096,-1.46739c0.57887,-0.15345 1.1651,-0.29036 1.74489,-0.40889zm-0.30047,-3.24443c0.00827,-0.01011 0.02022,-0.06432 0.02481,-0.09372c0.00735,-0.04503 -0.07259,-0.1121 -0.08821,-0.14242c-0.00735,-0.01562 -0.04042,-0.03492 -0.07902,-0.05422c0.2729,-0.04961 0.54304,-0.0928 0.80583,-0.12863c0.13691,0.15069 0.27565,0.33629 0.4144,0.55222c-0.3657,0.05238 -0.73875,0.11486 -1.11272,0.18653c-0.02481,-0.07811 -0.05329,-0.19755 0.03491,-0.31976zm4.47477,1.01164c0.03032,-0.07993 0.06891,-0.12496 0.05421,-0.25819c-0.00184,-0.00827 0.02665,-0.04043 0.05054,-0.06891c0.09556,0.10474 0.18836,0.21409 0.27932,0.3271l0,0.00092c-0.10107,-0.00092 -0.18836,-0.00183 -0.26738,-0.00183c-0.04043,0 -0.07902,0 -0.11669,0.00091zm-0.95744,0.53201c-0.01102,0.04135 -0.10658,0.09832 -0.13415,0.1801c-0.06432,0.18928 0.16539,0.38959 0.14886,0.40245c-0.00368,0.00276 -0.00644,0.01746 -0.00184,0.02481c0.01837,0.03492 0.05237,0.10659 0.09464,0.1461c0.03767,0.03583 0.08178,0.04961 0.11118,0.05053c0.00827,0 0.02205,-0.00551 0.03124,-0.01102c0.00459,-0.00276 0.02205,-0.00368 0.03583,-0.00184c0.01654,0.00275 0.04319,0.00184 0.08086,-0.02205c0.03124,-0.02022 0.0634,-0.04778 0.09372,-0.07719c0.03308,0.07075 0.06432,0.14242 0.09556,0.21593c-0.58162,0.04319 -0.84349,0.06891 -1.28821,0.12221c-0.0147,-0.03859 -0.0533,-0.08546 -0.08729,-0.12129c-0.01746,-0.01838 -0.1654,0.06616 -0.22328,0.12221c-0.13691,-0.40246 -0.28117,-0.78194 -0.4291,-1.13202c0.49709,-0.0634 0.98408,-0.11118 1.45085,-0.14058c0.01562,0.02665 0.03124,0.05329 0.04686,0.07994c-0.06615,0.08729 -0.00643,0.08729 -0.02573,0.16171zm-5.0132,1.69803c0.10383,-0.01838 0.11485,0.04869 0.21317,-0.12589c0.04227,-0.07442 0.00368,-0.13507 0.01838,-0.23889c0.0101,-0.07627 0.13599,-0.39511 0.05605,-0.45759c-0.09189,-0.07167 0.1856,-0.23247 0.25543,-0.22328c0.05605,0.00735 0.06065,-0.03491 0.07443,-0.06799c0.00276,-0.00551 0.0193,-0.10383 0.034,-0.16172c0.26462,-0.06156 0.5265,-0.11945 0.78653,-0.17274c0.0928,0.36019 0.19295,0.7608 0.2977,1.19358c-0.80766,0.1709 -1.03461,0.22695 -1.72467,0.40337c-0.00826,-0.0487 -0.0147,-0.0974 -0.02113,-0.1461c0.00276,-0.00092 0.00643,-0.00184 0.01011,-0.00275zm1.58868,-2.46985c-0.01011,-0.01654 0.0294,-0.08913 0.00367,-0.10659c-0.01929,-0.0147 -0.0634,-0.05972 -0.09096,-0.10199c0.40704,-0.07718 0.81409,-0.14518 1.21287,-0.20123c0.15161,0.26004 0.29954,0.55315 0.44472,0.8729c-0.50812,0.07167 -1.01716,0.15804 -1.51793,0.25636c-0.04318,-0.16263 -0.08637,-0.32159 -0.13047,-0.47688c0.06799,-0.07718 0.12772,-0.1608 0.0781,-0.24257zm3.25454,0.28576c-0.60828,0.04594 -0.8242,0.07075 -1.40767,0.1415c-0.14609,-0.32252 -0.29403,-0.61471 -0.44196,-0.8729c0.4291,-0.05329 0.83798,-0.0928 1.2193,-0.11669c0.21685,0.24441 0.42818,0.52925 0.63033,0.84809zm-0.5219,-1.10078c-0.18561,-0.19663 -0.37673,-0.37121 -0.56969,-0.51914c0.2435,-0.00919 0.47872,-0.01011 0.70016,-0.00368c0.27657,0.13507 0.54671,0.3023 0.80675,0.49801c-0.29863,-0.00183 -0.61287,0.00644 -0.93722,0.02481zm-0.32344,0.02114c-0.37488,0.02848 -0.75804,0.06799 -1.14396,0.11761c-0.13139,-0.2095 -0.26462,-0.39418 -0.39694,-0.55223c0.38408,-0.04594 0.5311,-0.05788 0.91241,-0.08637c0.21226,0.14059 0.42267,0.31517 0.62849,0.52099zm-2.62421,1.56662c-0.18193,0.03768 -0.36386,0.07719 -0.54396,0.11853c0.00092,-0.00367 0.00276,-0.00643 0.00368,-0.00918c0.13139,-0.34365 0.33813,-0.36478 0.45299,-0.43554c0.02848,0.10475 0.05697,0.21318 0.08729,0.32619zm0.81685,0.10659c-0.05054,0.05513 -0.12772,0.12772 -0.16815,0.15161c-0.02021,0.01194 -0.11302,0.19479 -0.07442,0.25084c0.03859,0.05421 0.06707,0.12496 0.12496,0.15804c-0.02665,0.034 0.18377,-0.11485 0.17182,-0.05145c-0.02573,0.1268 0.17366,-0.0487 0.18469,-0.05513c0.11761,-0.10567 0.24717,-0.26279 0.36202,-0.36203c0.03951,-0.03307 -0.05513,-0.11393 -0.15436,-0.16814c0.18285,-0.02849 0.36937,-0.05697 0.62849,-0.09465c0.1516,0.35927 0.29954,0.74978 0.4392,1.16602c-0.55498,0.07718 -1.12466,0.17274 -1.69618,0.28484c-0.10199,-0.41532 -0.20215,-0.81502 -0.30138,-1.1899c0.19112,-0.03676 0.3464,-0.06524 0.48331,-0.09005zm4.06955,0.47504c0.05881,-0.06891 -0.04869,-0.14426 -0.06523,-0.18744c-0.01471,-0.04043 0.15896,-0.24074 0.08912,-0.30322c-0.02205,-0.02022 -0.23522,-0.12496 -0.23614,-0.13967c0,-0.00183 -0.02021,-0.16814 -0.03951,-0.23154c0.15988,-0.00184 0.28668,0 0.44931,0.00275c-0.00183,0.03032 -0.00735,0.068 -0.01653,0.11118c-0.02665,0.11761 0.19387,0.12864 0.2049,0.1268c0.01286,-0.00367 0.03859,-0.00643 0.06615,-0.00827c0.05789,0.08546 0.11486,0.17275 0.17091,0.26279c-0.08637,0.02757 -0.14977,0.27841 -0.14885,0.34549c0.00459,0.28851 0.09739,0.10107 0.1075,0.19755c0.00276,0.03124 -0.02297,0.06799 -0.04686,0.10015c-0.23522,0.00184 -0.47596,0.00827 -0.72037,0.0193c0.02481,-0.15345 0.23798,-0.07627 0.2536,-0.21593c0.00184,-0.01654 -0.1121,-0.02665 -0.068,-0.07994zm1.08791,-0.8095c0.00735,0.00368 0.0147,0.00551 0.02114,0.01011c0.01286,0.00735 0.14425,0.29311 0.12863,0.35008c-0.01837,0.06248 -0.22971,0.02572 -0.34089,0.04226c-0.06891,-0.11118 -0.13782,-0.21868 -0.20949,-0.32435c0.00919,-0.00735 0.01929,-0.0147 0.03216,-0.02481c0.04961,-0.03399 0.11577,-0.05972 0.18285,-0.06983c0.0634,0.0046 0.12496,0.01011 0.1856,0.01654zm-0.78561,-0.44288c-0.10383,-0.12864 -0.21041,-0.25176 -0.32067,-0.3703c0.09556,-0.08912 0.30873,-0.1856 0.37213,-0.10015c0.06891,0.0928 -0.05605,0.37029 -0.05146,0.47045zm-1.16785,-0.57703c0.01011,0.0147 0.00368,0.10382 0.01654,0.13507c0.06432,0.14701 -0.03399,0.05421 -0.07075,0.24624c-0.03583,0.19021 0.09281,0.08638 -0.06799,0.24993c-0.02297,0.02297 -0.04319,0.06156 -0.06248,0.10659c-0.02297,0.00091 -0.04686,0.00183 -0.07167,0.00367c-0.19296,-0.31057 -0.39511,-0.59357 -0.60736,-0.84533c0.41624,-0.01746 0.57979,-0.01838 0.91425,-0.01379c0.02848,0.05238 -0.03767,0.07535 -0.05054,0.11762zm-1.96081,-1.07873c-0.10015,-0.05972 -0.20214,-0.11485 -0.30321,-0.16263c0.04318,0 0.08637,0.00092 0.12588,0.00184c0.20674,0.03124 0.41348,0.07902 0.61746,0.14425c-0.13048,0.00276 -0.26095,0.00919 -0.44013,0.01654zm-1.17703,0.1121c-0.11026,-0.10015 -0.18285,-0.16539 -0.2536,-0.21684c0.16631,-0.01746 0.3271,-0.03216 0.48239,-0.04135c0.17182,0.03675 0.34456,0.09648 0.51547,0.17733c-0.23982,0.02022 -0.48883,0.04687 -0.74426,0.08086zm1.53263,3.57154c0.03859,0.11945 0.07626,0.24166 0.11393,0.36478c-0.02573,0.01103 -0.05697,0.02481 -0.06799,0.02665c-0.05238,0.00735 -0.02665,0.18377 -0.0294,0.18928c-0.01746,0.04227 -0.00092,0.09924 0.01378,0.14518c0.01562,0.05237 0.0781,0.01011 0.0928,0.03492c0.04502,0.0735 -0.11577,0.27014 0.02481,0.27841c0.0294,0.00183 0.08545,-0.02114 0.14426,-0.05697c0.04043,0.14977 0.08086,0.30046 0.12129,0.45391c-0.59817,0.08269 -1.19909,0.18376 -1.79267,0.30138c-0.12955,-0.56877 -0.23798,-1.03462 -0.33905,-1.44902c0.56876,-0.1121 1.1458,-0.2095 1.71824,-0.28852zm0.69005,1.39848c-0.06616,-0.25544 -0.13324,-0.50352 -0.20307,-0.74426c0.26095,-0.09097 0.16539,0.21409 0.27749,0.12129c0.0193,-0.01562 0.14518,0.06707 0.0046,0.1268c-0.09005,0.03859 0.02572,0.10934 0.05697,0.13139c0.09096,0.06156 0.20398,-0.35375 0.43369,-0.1608c0.02113,0.01746 0.00092,0.04319 -0.0193,0.068c-0.02113,0.02573 -0.0101,0.04227 -0.05053,0.06616c-0.04778,0.02848 -0.05973,0.04318 -0.10108,0.05329c-0.02113,0.00459 0.01471,0.10934 0.01746,0.11577c0.01654,0.0533 -0.11485,0.14059 -0.19204,0.19572c-0.07534,0.00827 -0.14977,0.01745 -0.22419,0.02664zm2.21257,0.82604c-0.03216,-0.14793 -0.06708,-0.29403 -0.10199,-0.43829c0.06891,0.07535 0.14058,0.14334 0.25176,0.15253c0.04778,0.0046 0.09097,0.01011 0.13231,0.01838c0.0487,0.00919 0.09097,0.0634 0.14243,0.08453c0.05513,0.02389 0.11761,0.11118 0.13874,0.15896c0.00919,0.02022 0.02573,0.14059 -0.02665,0.16907c-0.05421,0.0294 -0.14425,0.03124 -0.20857,0.03124c-0.03768,0 -0.09097,0.03492 -0.08729,0.09923c0,0.01654 -0.00092,0.02849 -0.00276,0.03768l-0.17182,0c-0.02114,-0.10475 -0.04319,-0.2095 -0.06616,-0.31333zm2.78226,-1.51058c0.17641,0.03033 0.56968,0.00552 0.69832,0.3069c0.11209,0.26279 -0.34549,0.11485 -0.54304,0.10475c-0.04962,-0.13967 -0.10107,-0.27658 -0.15528,-0.41165zm-3.68824,-3.85178c-0.01286,0.00827 -0.13599,-0.04411 -0.17182,-0.01471c0.00367,0.01746 -0.02114,0.07994 -0.0147,0.08638c0.00918,0.00918 -0.01103,0.00827 -0.04503,0.03307c-0.24625,-0.18744 -0.38959,-0.29311 -0.56784,-0.40061c0.13323,0.01286 0.26003,0.0294 0.37672,0.04962c0.13875,0.05788 0.27474,0.12128 0.40981,0.1902c0.01837,0.02481 0.02664,0.04594 0.01286,0.05605zm-4.16052,-0.6046c0.10567,0.04686 0.21225,0.11853 0.32252,0.21317c-0.19296,0.02848 -0.38776,0.06064 -0.58255,0.09556c-0.00919,-0.00276 -0.01654,-0.00735 -0.02113,-0.01746c0.00183,-0.00276 -0.02665,-0.02573 -0.05881,-0.02756c-0.05513,-0.00276 -0.13231,0.01562 -0.16999,0.00735c-0.04134,-0.00919 -0.0294,-0.02481 -0.01929,-0.04778c0.01929,-0.04503 0.13599,-0.00184 0.15161,-0.1268c0.00092,-0.01287 0.00275,-0.02573 0.00643,-0.03951c0.12404,-0.02114 0.24809,-0.03951 0.37121,-0.05697zm-1.88546,4.30386c-0.80032,0.22511 -1.02359,0.29678 -1.6723,0.51087c-0.00367,-0.05972 -0.00735,-0.11945 -0.0101,-0.17825c0.17549,-0.03767 0.13966,-0.2095 0.13966,-0.21777c-0.00092,-0.04962 0.05605,-0.20398 0.05605,-0.20398c0.12956,-0.02022 0.06156,-0.29403 0.13323,-0.34732c0.07167,-0.05238 -0.01102,-0.19204 -0.06891,-0.17183c-0.04594,0.01654 -0.08821,0.0533 -0.10751,0.09372c-0.01929,0.04043 -0.09464,0.02389 -0.09004,-0.00183c0.00367,-0.02205 -0.02665,-0.09281 -0.07167,-0.11118c0.00183,-0.04227 0.00275,-0.08546 0.00459,-0.12772c0.47688,-0.15804 0.73324,-0.2389 1.03186,-0.32619c-0.04043,0.09188 -0.04778,0.21501 -0.0294,0.27749c0.0147,0.04686 0.06799,0.0294 0.09464,0.07259c0.02113,0.034 -0.00184,0.13139 0.01838,0.15712c0.03399,0.04502 0.09831,0.12221 0.10291,0.12772c0.05788,0.06524 0.09739,0.18744 0.15069,0.19571c0.03032,0.0046 0.07902,0.01379 0.09831,0.04411c0.01379,0.02113 0.09372,0.02205 0.10751,0.03859c0.03583,0.04318 0.06615,0.05605 0.09556,0.05329c0.00551,0.03767 0.01102,0.07627 0.01654,0.11486zm-0.77459,-2.53785c0,0 0,0.00092 -0.00092,0.00092c-0.23614,0.06983 -0.41439,0.12772 -0.69097,0.21961c0.02206,-0.07994 0.04503,-0.15621 0.06892,-0.23063c0.39142,-0.22053 0.57519,0.01286 0.62297,0.0101zm-1.42696,0.0487c0.08913,-0.00275 0.18836,0.13232 0.23522,0.13507c0.05513,0.00184 0.17734,-0.10934 0.28393,-0.12496c-0.02573,0.08453 -0.05054,0.16999 -0.07259,0.25911l-0.0487,0.01654c-0.06065,0.02205 -0.12129,0.04319 -0.18285,0.06524c-0.29495,0.10842 -0.56141,0.21409 -0.80858,0.31884c0.13415,-0.28392 0.28851,-0.5412 0.45942,-0.76999c0.01746,-0.00735 0.03583,-0.0147 0.05329,-0.02297c0.01562,0.06064 0.034,0.12496 0.08086,0.12312zm-1.02083,0.351c0.14425,-0.08545 0.30046,-0.16999 0.46952,-0.2536c-0.09556,0.14885 -0.18285,0.30873 -0.26279,0.47504c-0.03583,-0.03951 -0.10107,-0.07626 -0.13323,-0.08086c-0.01194,-0.00092 -0.08361,-0.02848 -0.14426,-0.05788c0.02389,-0.02757 0.04687,-0.05605 0.07076,-0.0827zm-0.28485,0.38959c0.0193,-0.01746 0.32895,-0.04686 0.34916,-0.01103c0.00736,0.0147 0.03033,0.02665 0.05422,0.03308c-0.00735,0.01746 -0.01562,0.03492 -0.02389,0.05238c-0.24442,0.11118 -0.47688,0.22419 -0.69097,0.33905c0.08269,-0.13323 0.16998,-0.26187 0.26095,-0.38683c0.02205,-0.00919 0.04043,-0.01838 0.05053,-0.02665zm-1.32497,1.36632c0.19296,-0.15804 0.26739,-0.21593 0.41348,-0.31333c-0.15069,0.33262 -0.27657,0.68362 -0.37672,1.0484c-0.08821,0.05513 -0.1608,0.10108 -0.22236,0.14059c0.01102,-0.03951 0.01837,-0.09373 -0.00644,-0.13232c-0.01562,-0.02389 -0.06615,-0.10199 -0.09464,-0.19295c0.06616,-0.13875 0.15529,-0.31333 0.28668,-0.55039zm1.14396,1.97092c0.00184,0.12771 0.00643,0.25727 0.01378,0.38775l-0.4438,0c-0.02205,-0.03676 -0.03583,-0.10108 -0.04318,-0.1608c0.15161,-0.07626 0.30873,-0.15161 0.4732,-0.22695zm4.32499,0.38775c-0.00367,-0.01654 -0.00735,-0.034 -0.01102,-0.05054c0.60092,-0.15804 1.21379,-0.3023 1.82849,-0.42818c0.034,0.15712 0.06984,0.317 0.10567,0.47872l-1.92314,0zm2.21166,0c-0.03032,-0.13691 -0.06065,-0.2729 -0.09005,-0.40521l-0.02848,-0.12772c0.84901,-0.1608 1.0971,-0.19847 1.79909,-0.30138c0.05789,0.23614 0.11578,0.48882 0.17734,0.76815c0.00459,0.02113 0.01011,0.04411 0.0147,0.06616l-1.8726,0zm2.97705,-0.05605c0.0634,-0.05146 0.0487,-0.12037 0.09831,-0.19572c0.0386,-0.05788 0.14243,-0.11485 0.14151,-0.1562c0,-0.02665 -0.05697,-0.09556 -0.05881,-0.15161c-0.00184,-0.04686 0.04686,-0.08453 0.07535,-0.10291c0.07902,-0.04962 0.19663,0.02297 0.24257,-0.02021c0.07718,-0.06983 0.11945,-0.21042 0.19663,-0.25912c0.05789,0.22053 0.1121,0.44748 0.16264,0.67811c0.01929,0.08821 0.03675,0.1755 0.05513,0.26371l-0.95009,0c0.00368,-0.0193 0.01471,-0.03859 0.03676,-0.05605zm-3.73142,11.13178c-4.47109,-2.02054 -7.0999,-5.07201 -8.34585,-9.71033l8.34585,0l0,9.71033zm1.36448,-0.00735l0,-9.70298l8.26958,0c-1.11547,3.71855 -3.48976,7.45089 -8.26958,9.70298zm8.62518,-11.06838l-0.02757,0c-1.21103,-3.99237 -4.925,-6.90694 -9.30788,-6.90694c-4.38287,0 -8.09776,2.91457 -9.30971,6.90694l-0.0147,0c-0.00276,-0.01379 -0.00551,-0.02573 -0.00827,-0.03951c-0.66708,-3.37124 -0.52925,-6.46774 -0.37673,-8.07847l19.43444,0c0.20766,1.91763 0.32068,4.94338 -0.38958,8.11798zm7.41827,-6.30041c-0.07626,0.00551 -0.15528,0.01745 -0.23982,0.03583c-0.08269,0.01838 -0.17274,0.04043 -0.26738,0.0634c-0.09648,0.02297 -0.18469,0.04686 -0.26738,0.06983c-0.0827,0.02205 -0.15896,0.0487 -0.22879,0.07902c-0.06984,0.03124 -0.1314,0.06892 -0.18745,0.11486c-0.05605,0.04594 -0.10475,0.10383 -0.14793,0.17366c-0.05973,0.09832 -0.0974,0.20214 -0.11394,0.31057c-0.01746,0.10934 -0.01011,0.22511 0.02022,0.34732c0.0248,0.10199 0.0634,0.1948 0.11485,0.27933c0.05146,0.08453 0.11578,0.15528 0.19296,0.21225c0.07626,0.05697 0.16447,0.09924 0.26371,0.12588c0.10015,0.02757 0.20949,0.03584 0.32986,0.02573l-0.1075,-0.43921c-0.09556,-0.00092 -0.1801,-0.02297 -0.25452,-0.06615c-0.07535,-0.04319 -0.12588,-0.11945 -0.15345,-0.22971c-0.0147,-0.05973 -0.01746,-0.1167 -0.00827,-0.16815c0.00919,-0.05238 0.02757,-0.09832 0.05513,-0.13783c0.01838,-0.02664 0.03859,-0.05053 0.0634,-0.07167c0.02481,-0.02205 0.05881,-0.04226 0.10199,-0.06156c0.04319,-0.02021 0.10016,-0.04043 0.16999,-0.06064c0.07075,-0.02114 0.15712,-0.04411 0.26371,-0.07075c0.10566,-0.02573 0.19479,-0.04595 0.26646,-0.06065c0.07075,-0.0147 0.13048,-0.02297 0.17826,-0.02664c0.04778,-0.00276 0.08729,0 0.11945,0.00735c0.03032,0.00735 0.06156,0.01929 0.08912,0.03399c0.04227,0.02206 0.08086,0.05421 0.1121,0.09648c0.03308,0.04135 0.05697,0.0928 0.07167,0.15253c0.02665,0.11026 0.01838,0.20214 -0.02848,0.27473c-0.04503,0.07351 -0.10934,0.13232 -0.19388,0.17734l0.10934,0.44013c0.11118,-0.04778 0.20491,-0.10751 0.27933,-0.17826c0.07627,-0.06983 0.13323,-0.14793 0.1755,-0.2343c0.04135,-0.08638 0.06524,-0.17826 0.07167,-0.27658c0.00735,-0.09739 -0.00276,-0.19847 -0.02848,-0.30138c-0.02941,-0.12312 -0.0781,-0.22879 -0.14426,-0.317c-0.06524,-0.08821 -0.14793,-0.16171 -0.24625,-0.22144c-0.06983,-0.04227 -0.14058,-0.07075 -0.21133,-0.08545c-0.07076,-0.01378 -0.14426,-0.01838 -0.21961,-0.01286m-3.06654,16.12596c-0.02849,-0.06616 -0.06616,-0.12956 -0.11302,-0.18928c-0.04778,-0.05881 -0.10199,-0.11761 -0.16539,-0.1755c-0.06157,-0.05881 -0.12956,-0.12037 -0.20399,-0.18561c-0.0735,-0.06524 -0.14334,-0.12588 -0.20857,-0.18101c-0.06524,-0.05513 -0.12956,-0.10291 -0.1948,-0.14334c-0.06432,-0.03951 -0.13047,-0.06983 -0.20031,-0.09096c-0.06891,-0.0193 -0.14425,-0.02665 -0.22603,-0.02206c-0.11486,0.00644 -0.22144,0.034 -0.3216,0.08086c-0.09923,0.0487 -0.19112,0.11945 -0.27381,0.21317c-0.07075,0.0781 -0.12496,0.16264 -0.16539,0.25268c-0.03951,0.09005 -0.06157,0.18377 -0.06524,0.27841c-0.00368,0.09648 0.01194,0.19296 0.04594,0.28944c0.03308,0.0974 0.08821,0.19296 0.16539,0.2876l0.30046,-0.33814c-0.05329,-0.07902 -0.08361,-0.16171 -0.09004,-0.24808c-0.00643,-0.08546 0.02756,-0.17091 0.10291,-0.25544c0.04135,-0.04594 0.08637,-0.07994 0.13415,-0.10199c0.0487,-0.02206 0.09648,-0.03308 0.14426,-0.03216c0.03216,-0.00092 0.0634,0.00275 0.09556,0.01102c0.03124,0.00827 0.06707,0.02481 0.1075,0.04962c0.04135,0.02481 0.09005,0.05972 0.14702,0.10567c0.05605,0.04594 0.12496,0.10566 0.20674,0.17825c0.08085,0.07167 0.14793,0.13323 0.2003,0.18377c0.0533,0.05146 0.09281,0.09464 0.12313,0.13323c0.0294,0.03768 0.04962,0.07167 0.06156,0.10108c0.01195,0.03124 0.01838,0.06156 0.02205,0.09372c0.00552,0.04778 0.00092,0.09739 -0.01562,0.14701c-0.01562,0.05054 -0.04318,0.09832 -0.08453,0.14518c-0.07535,0.08453 -0.15712,0.12864 -0.24257,0.13231c-0.08638,0.00276 -0.17091,-0.01654 -0.25544,-0.05972l-0.30046,0.33813c0.10199,0.06432 0.20306,0.10843 0.30413,0.13048c0.10108,0.02205 0.19755,0.02573 0.29219,0.01102c0.09556,-0.0147 0.18377,-0.04686 0.26831,-0.09647c0.08361,-0.04962 0.16171,-0.11486 0.23338,-0.1948c0.08362,-0.09372 0.14242,-0.19296 0.17826,-0.29679c0.03583,-0.10474 0.04962,-0.21409 0.04318,-0.32894c-0.00459,-0.08178 -0.02113,-0.1562 -0.04961,-0.22236"/>
   </g>
   <polygon id="svg_18" points="41.588 19.688 41.02 18.794 41.489 18.496 41.972 19.257 42.308 19.044 41.825 18.282 42.277 17.996 42.845 18.89 43.181 18.676 42.373 17.406 40.445 18.631 41.252 19.901" fill="#A8996E"/>
   <polygon id="svg_19" points="34.381 43.619 35.439 43.917 35.738 42.858 34.68 42.559" fill="#A8996E"/>
   <polygon id="svg_20" points="33.275 10.564 32.85 10.427 32.149 12.602 32.574 12.738" fill="#A8996E"/>
   <polygon id="svg_21" points="15.702 16.448 15.681 15.348 14.58 15.37 14.603 16.47" fill="#A8996E"/>
   <polygon id="svg_22" points="18.274 14.902 16.908 13.069 16.551 13.336 17.917 15.168" fill="#A8996E"/>
   <polygon id="svg_23" points="19.617 14.024 18.946 12.791 20.412 13.591 20.761 13.401 19.67 11.393 19.278 11.606 19.947 12.836 18.483 12.039 18.133 12.229 19.224 14.236" fill="#A8996E"/>
   <polygon id="svg_24" points="14.426 18.855 14.085 18.649 13.538 19.555 13.063 19.269 13.529 18.498 13.189 18.292 12.723 19.064 12.263 18.787 12.81 17.88 12.469 17.674 11.692 18.963 13.648 20.143" fill="#A8996E"/>
   <g id="svg_25">
    <mask transform="translate(0,0.0430000014603138) " id="gia-logo-d">
     <use id="svg_26" xlink:href="#gia-logo-c"/>
    </mask>
    <path id="svg_27" mask="url(#gia-logo-d)" d="m51.3192,29.61338c1.1458,-0.37122 3.72499,-1.18255 3.72499,-1.18255l-3.64873,-1.43799c0,0 2.45515,-1.10445 3.56879,-1.60706l-3.77645,-1.01256c1.02635,-0.65514 3.37124,-1.96173 3.37124,-1.96173l-3.87292,-0.63676l3.09098,-2.34397l-3.87751,-0.16723l2.84749,-2.67475l-3.89406,0.26279c0.7847,-0.90598 1.72559,-2.05545 2.53325,-2.9504l-3.84351,0.668l2.1749,-3.23157l-3.72683,1.11455c0.53477,-1.08147 1.79542,-3.46771 1.79542,-3.46771l-3.43096,1.34335l1.24963,-3.44658l-3.37859,1.88087c0.30506,-1.16785 0.73599,-2.56908 1.02911,-3.74888l-3.19298,2.26495c0,0 0.40888,-2.6968 0.59357,-3.85454l-2.91824,2.58654l0.19663,-3.89773l-0.19663,0.22971c-0.80583,0.88484 -1.59328,1.86709 -2.4331,2.66372l-0.22971,-3.84627l-2.28241,3.14887c-0.20674,-1.19082 -0.47504,-2.59757 -0.63767,-3.80952l-1.96081,3.36021l-1.08975,-3.70294l-1.52895,3.5403l-1.49312,-3.54857l-1.12742,3.71121l-1.88179,-3.38869l-0.70476,3.804l-2.24013,-3.15898l-0.30414,3.86925l-2.56908,-2.89435l0.13415,3.88762l-2.90079,-2.5746l0.56509,3.83066l-3.12682,-2.28057l0.95467,3.77552c0,0 -2.3017,-1.32497 -3.3501,-1.92497l1.38286,3.64688l-3.57521,-1.51517l1.76417,3.44015l-3.70201,-1.12191l2.16387,3.21779l-3.82698,-0.70383l2.48363,3.00737l-3.84995,-0.31333l2.7795,2.72621l-3.86924,0.09923l3.08363,2.41105l-3.84168,0.53568l3.33999,2.02973c-1.14763,0.34916 -2.62329,0.65513 -3.76909,0.99326l3.51365,1.60338c-1.1265,0.46953 -3.60829,1.43983 -3.60829,1.43983c0,0 2.61962,0.78837 3.71029,1.23584l-3.47507,1.77888c0,0 2.65638,0.55774 3.83525,0.8095c-0.99418,0.66525 -3.27108,2.16112 -3.27108,2.16112l3.90508,0.38132c-0.89587,0.78653 -3.01104,2.52498 -3.01104,2.52498l3.92805,-0.03491l-2.7161,2.82452l3.89406,-0.48883c-0.7314,0.96111 -2.39359,3.10661 -2.39359,3.10661l3.83525,-0.88025l-2.04167,3.33815l3.72591,-1.29556l-1.67046,3.52008c0,0 2.46526,-1.24871 3.5449,-1.68607l-1.2533,3.72223l3.28578,-2.08945l-0.79296,3.83157l3.03861,-2.40001l-0.37673,3.85362l2.80615,-2.81625l-0.02757,3.9547c0,0 1.72651,-2.1942 2.49007,-3.05515c0.16539,1.19817 0.47779,3.90416 0.47779,3.90416l2.0821,-3.34459l0.84074,3.83801l0.16999,-0.30414l1.62727,-3.27659l1.29832,3.7599l1.35805,-3.6331l1.69067,3.47322l0.91425,-3.83984c0,0 1.45912,2.31273 2.07107,3.34918l0.49434,-3.92621c0,0 1.66127,2.16571 2.43585,3.10477l0.10567,-3.82607l2.68853,2.66465l-0.31516,-3.82422l2.98532,2.41471c-0.2389,-1.10353 -0.80031,-3.87567 -0.80031,-3.87567c1.00337,0.68729 2.29802,1.48025 3.31334,2.13539l-1.21103,-3.74061l3.51641,1.73293c0,0 -1.18071,-2.48638 -1.63922,-3.56694c1.08148,0.39326 2.60492,0.92711 3.67538,1.36356c0.13047,0.09832 -1.92498,-3.38226 -1.92498,-3.38226l3.73877,0.92436l-2.30538,-3.13509l3.82607,0.50903l-2.70875,-2.86219l3.93081,0.09005l-2.99084,-2.54795l3.89865,-0.35376l-3.24351,-2.21073l3.8233,-0.7507l-3.47414,-1.84687zm2.71885,-1.33232l-5.10968,-0.18561l2.30446,-0.91701c0.9363,0.36019 1.86617,0.73048 2.80522,1.10262zm-6.04874,4.86894l1.89098,1.45453l-2.41472,0.17091c0,0 0.37121,-1.07965 0.52374,-1.62544zm-0.91608,-13.75507l2.39909,0.03583c-0.60184,0.5458 -1.16509,1.09986 -1.82114,1.59144l-0.57795,-1.62727zm0.7608,2.15009l2.37429,0.35559c-0.6873,0.46861 -1.24687,0.94457 -1.95714,1.37l-0.41715,-1.72559zm0.64778,9.30144l2.09496,1.31027l-2.43401,0.39327l0.33905,-1.70354zm-0.10015,-6.97493l2.29067,0.59357l-2.02788,1.10813l-0.26279,-1.7017zm0.317,4.6714l2.25024,1.04748c-0.77458,0.25176 -1.59511,0.43737 -2.38072,0.65513l0.13048,-1.70261zm-0.03216,-2.35684l2.33662,0.80675c-0.73232,0.317 -1.51793,0.63308 -2.28241,0.93814l-0.05421,-1.74489zm5.27324,-0.84166l-5.08672,0.39235l2.17215,-1.15682l2.91457,0.76447zm-0.43645,-2.86403l-4.98932,0.92068l2.00767,-1.41869l2.98165,0.49801zm-0.69924,-2.84382l-4.84598,1.48393l1.86525,-1.61716l2.98073,0.13323zm-1.0144,-2.75285l-4.69437,2.04167l1.67964,-1.85606c0,0 2.0187,-0.11945 3.01473,-0.18561zm-4.95624,1.96541l-0.80766,-1.55009c0.81868,-0.08821 2.39542,-0.22971 2.39542,-0.22971c0,0 -1.05299,1.15774 -1.58776,1.7798zm3.55959,-4.53633l-4.47568,2.57919l1.43248,-2.04626c0.99327,-0.17458 2.06096,-0.34641 3.0432,-0.53293zm-4.68425,2.4625l-0.97214,-1.52161l2.28608,-0.34732l-1.31394,1.86893zm3.14427,-4.92408l-4.11641,2.98073l1.25422,-2.13999c0.96203,-0.28392 1.92222,-0.54579 2.86219,-0.84074zm-4.40033,2.98073l-0.05513,0l-1.06954,-1.33233l2.35775,-0.80766l-1.23308,2.13999zm2.51028,-5.24108l-3.72224,3.43923l1.03095,-2.37429l2.69129,-1.06494zm-4.02729,3.49436l-1.268,-1.21196c0.73323,-0.38224 1.5069,-0.74242 2.2824,-1.06953l-1.0144,2.28149zm-0.65422,-4.03924l2.61778,-1.49587l-3.38409,3.85271l0.76631,-2.35684zm-1.02726,2.41197l-1.38746,-1.04748l2.0968,-1.30936c-0.17366,0.75254 -0.49158,1.5602 -0.70934,2.35684zm-1.1017,-3.96297l2.41105,-1.72467l-2.90355,4.19176l0.4925,-2.46709zm-0.75437,2.54335c-0.49158,-0.24992 -0.98316,-0.62205 -1.49587,-0.88392l1.96448,-1.55009c-0.16447,0.80766 -0.31516,1.62635 -0.46861,2.43401zm-1.551,-3.76449l2.22819,-2.02054l-2.43585,4.47568l0.20766,-2.45514zm-2.37797,-1.04932l1.98654,-2.22728l-1.94427,4.71734c-0.01103,-0.75345 -0.06524,-1.64932 -0.04227,-2.49006zm2.11702,1.14671l-0.20766,2.48915l-1.57122,-0.73232l1.77888,-1.75683zm-2.37981,-0.99327l0.04319,2.51028l-1.61533,-0.54579l0,-0.07626l1.57214,-1.88823zm-0.52374,-3.29772l-1.41961,4.89192l-0.317,-2.48915l1.73661,-2.40277zm-1.96632,2.58746l0.33997,2.48914l-1.73753,-0.3611l1.39756,-2.12804zm-0.88944,-3.12774l-0.86831,4.90754l-0.57795,-2.35775l1.44626,-2.54979zm-1.68608,2.71334l0.63401,2.43401l-1.75867,-0.18652l1.12466,-2.24749zm-1.20092,-3.14428l-0.317,5.10877l-0.89128,-2.27506l1.20828,-2.83371zm-1.37,3.11304c0,0 0.60644,1.44993 0.86923,2.25852l-1.74856,-0.03308l0.87933,-2.22544zm-1.56662,-3.09099l0.26187,5.08672l-1.10261,-2.20523l0.84074,-2.88149zm-1.01532,3.12223l1.12466,2.24749l-1.75775,0.18652l0.63309,-2.43401zm-1.88915,-2.80614c0,0 0.5458,3.35193 0.80767,5.03342l-1.33141,-2.07475l0.52374,-2.95867zm-0.65513,3.19849l1.36448,2.11793l-1.70261,0.39326l0.33813,-2.51119zm-2.20522,-2.54336l1.36448,4.86987l-1.5602,-1.8285l0.19572,-3.04137zm-0.24901,3.38226l1.53814,1.80277c-0.52557,0.20766 -1.11271,0.38224 -1.64932,0.60092l0.11118,-2.40369zm-0.61379,2.27322l-1.77428,-1.63279l-0.11302,-3.08271l1.8873,4.7155zm-0.02113,0.34824l-1.60522,0.73232l-0.16171,-2.39267l1.76693,1.66035zm-12.96946,19.72755c-0.77551,-0.26187 -1.56112,-0.62206 -2.3357,-0.91701c0.76356,-0.30505 1.58225,-0.55498 2.3798,-0.81777c-0.09831,0.54488 -0.03216,1.18899 -0.0441,1.73478zm0.13139,2.35775l-2.4138,-0.70843c0,0 1.51885,-0.70935 2.28241,-1.0484l0.13139,1.75683zm-2.25943,-5.87232l2.43401,-0.54672l-0.20766,1.72467l-2.22635,-1.17795zm2.3357,6.41811l0.33813,1.73661l-2.46801,-0.42726l2.12988,-1.30935zm-1.83401,-8.96239c0.8196,-0.12129 1.67045,-0.1755 2.51027,-0.26187l-0.44655,1.70262l-2.06372,-1.44075zm2.28056,11.26685c0.18653,0.52466 0.35008,1.11364 0.54763,1.65851l-2.49006,-0.13048l1.94243,-1.52803zm0.34733,-12.01479l-1.67781,-1.60338l2.3458,-0.10475l-0.66799,1.70813zm7.92961,-13.3857l1.99113,1.46004l-1.57673,0.93722l-0.4144,-2.39726zm0.01378,2.67384l-1.43431,1.11088l-0.68178,-2.27138l2.11609,1.1605zm-0.48515,-6.00648l2.4138,4.47476l-1.97092,-1.45728l-0.44288,-3.01748zm-2.46709,1.53814l2.88241,4.19176l-2.10048,-1.19725l-0.78193,-2.99451zm-2.30262,1.78072l3.32989,3.88579l-2.20982,-0.99327l-1.12007,-2.89252zm3.42544,4.14766l-1.30751,1.25514l-0.93079,-2.19696l2.2383,0.94182zm-5.52132,-2.0968c1.234,1.19082 2.5112,2.29435 3.7452,3.48333l-2.30354,-0.71762l-1.44166,-2.76571zm3.82055,3.76725c-0.3703,0.45759 -0.75254,0.91609 -1.12467,1.3654l-1.13201,-2.03891l2.25668,0.67351zm-5.67569,-1.51884c1.36448,1.02726 2.75009,2.02053 4.10355,3.06801l-2.39083,-0.51823l-1.71272,-2.54978zm4.21197,3.3308l-0.93814,1.46372l-0.02481,0.04778l-1.41318,-2.01962l2.37613,0.50812zm-5.78503,-0.86279l4.40033,2.56541l-2.39726,-0.17734l-2.00307,-2.38807zm4.53081,2.82728l-0.78561,1.57214l-1.59235,-1.74581l2.37796,0.17367zm-5.80984,-0.21318c1.56111,0.67719 3.03677,1.38194 4.59697,2.04719l-2.40553,0.10199l-2.19144,-2.14918zm-1.07872,2.72437l4.86803,1.55101l-2.46618,0.26095l-2.40185,-1.81196zm-0.70935,2.82728l4.99942,1.00522l-2.45514,0.52374l-2.54428,-1.52896zm-0.39418,2.91641l5.0766,0.44564l-2.35775,0.78653l-2.71885,-1.23217zm-0.07627,2.90262l5.11061,-0.09831l-2.2282,1.01624l-2.88241,-0.91793zm0.26187,2.91457l5.0224,-0.68729l-2.0628,1.28821l-2.9596,-0.60092zm0.56785,2.88333l4.9351,-1.23493l-1.94335,1.49496l-2.99175,-0.26003zm0.8729,2.77215l4.76052,-1.75775l-1.74672,1.70262l-3.0138,0.05513zm5.05455,-1.70262l0.71027,1.62635l-2.48915,0.09832l1.77888,-1.72467zm-3.87476,4.37829l4.53082,-2.28333l-1.55009,1.88914l-2.98073,0.39419zm4.81474,-2.22728c0.30597,0.46861 0.6,0.99235 0.89495,1.49404l-2.46617,0.4144l1.57122,-1.90844zm-3.32897,4.73664l4.22392,-2.75102l-1.34243,2.07567l-2.88149,0.67535zm4.54,-2.71794l1.0484,1.38653l-2.36969,0.62573l1.32129,-2.01226zm-2.83646,5.07752l3.96204,-3.22146l-1.09526,2.20247l-2.86678,1.01899zm4.24597,-3.22146l1.17887,1.25514l-2.23003,0.87933l1.05116,-2.13447zm0.45391,4.00891l-2.70324,1.29098l3.55868,-3.57614l-0.85544,2.28516zm1.15039,-2.30629l1.31027,1.12466l-2.15101,1.08148l0.84074,-2.20614zm0.86279,3.98502l-2.52314,1.59327l3.14428,-4.00615l-0.62114,2.41288zm0.91609,-2.48915l1.4095,0.99327l-2.01043,1.35346l0.60093,-2.34673zm1.35069,3.89038l-2.39909,1.87444l2.69772,-4.35623l-0.29863,2.48179zm0.55958,-2.55806l1.51793,0.81777l-1.85515,1.61625l0.33722,-2.43402zm-0.36938,5.79606l2.18317,-4.5841l0.034,2.37704l-2.21717,2.20706zm2.62238,1.11456l1.75407,-4.83771c0.09924,0.83064 0.27841,2.39451 0.27841,2.39451l-2.03248,2.4432zm-0.17825,-3.47506l0.02205,-2.35592l1.57122,0.65606l-1.59327,1.69986zm2.4386,0.7902l-0.26738,-2.28148l1.64932,0.4686l-1.38194,1.81288zm0.6046,3.48977l1.17153,-5.01964l0.49525,2.34488l-1.66678,2.67476zm1.85607,-2.93387l-0.4778,-2.2383l1.68056,0.283l-1.20276,1.9553zm1.03921,3.39512l0.61286,-5.08763l0.69741,2.35867l-1.31027,2.72896zm1.52711,-2.94489l-0.7415,-2.31824l1.75866,0.09832l-1.01716,2.21992zm1.44259,3.0965l0.02205,-5.10784l0.99051,2.33845l-1.01256,2.76939zm1.17979,-3.05607c0,0 -0.62298,-1.52711 -1.00521,-2.26035c0.57887,-0.03216 1.73569,-0.09832 1.73569,-0.09832l-0.73048,2.35867zm1.72467,2.88241l-0.54671,-5.06558l1.22298,2.12804l-0.67627,2.93754zm0.84074,-3.17644l-1.23493,-2.11793l1.70354,-0.29495l-0.46861,2.41288zm2.04075,2.69681l-1.10169,-5.00126l1.4729,2.02053l-0.37121,2.98073zm0.5026,-3.2426l-1.47382,-1.99848l1.6484,-0.46953l-0.17458,2.46801zm2.30262,2.41288l-1.62635,-4.82484l1.70262,1.86066l-0.07627,2.96418zm-1.51609,-5.0665l1.57122,-0.65421l0.03584,2.38807l-1.60706,-1.73386zm-7.16054,-0.0928c-10.95076,0 -19.82862,-8.87694 -19.82862,-19.82862c0,-10.95077 8.87786,-19.82863 19.82862,-19.82863c10.95169,0 19.82955,8.87786 19.82955,19.82863c0,10.95168 -8.87786,19.82862 -19.82955,19.82862zm21.44487,-10.45643l-2.37521,-0.12129l0.6873,-1.55652l1.68791,1.67781zm-1.16142,2.27965l-2.35958,-0.3216c0.36294,-0.59908 0.84074,-1.49587 0.84074,-1.49587l1.51884,1.81747zm-1.3902,2.17031l-2.35684,-0.60368l1.01532,-1.38654l1.34152,1.99022zm-1.62452,2.07199l-2.24933,-0.91793l1.12559,-1.2873l1.12374,2.20523zm-2.75009,-0.50353l0.89495,2.30354l-2.15101,-1.17979l1.25606,-1.12375zm-1.7798,1.49588l0.62113,2.38072l-2.00859,-1.38745l1.38746,-0.99327zm-1.60522,3.72223l-1.83401,-1.60338l1.49679,-0.80767l0.33722,2.41105zm0.28117,3.39328l-2.19144,-4.73479l1.91946,1.70537l0.27198,3.02942zm2.52497,-1.50414l-2.64259,-4.35532l1.98838,1.38562l0.65421,2.9697zm2.41289,-1.65943l-3.12223,-4.06129l2.18317,1.21196l0.93906,2.84933zm2.21257,-1.92681l-3.54582,-3.67262l2.27138,0.93814l1.27444,2.73448zm1.99297,-2.15561l-3.96481,-3.27567l2.42207,0.62849l1.54274,2.64718zm1.68883,-2.35775l-4.26802,-2.80614l2.44228,0.33354l1.82574,2.4726zm1.44075,-2.54519l-4.53082,-2.32468l2.39634,0.10291l2.13448,2.22177zm1.17979,-2.67384l-4.77063,-1.80185l2.42482,-0.20122l2.34581,2.00307zm0.91609,-2.75377l-5.01413,-1.30751l2.49007,-0.39326l2.52406,1.70077zm-4.5639,-3.63218l2.39359,-0.66616l2.67199,1.39664l-5.06558,-0.73048z" fill="#A8996E"/>
   </g>
   <polygon id="svg_28" points="21.65 11.02 22.254 12.808 22.678 12.666 22.072 10.877 22.638 10.686 22.511 10.309 20.957 10.834 21.085 11.211" fill="#A8996E"/>
   <g id="svg_29" fill="#A8996E">
    <path id="svg_30" d="m10.70746,21.67659c0.04962,0.05329 0.10659,0.09924 0.17091,0.13875c0.06615,0.03859 0.13691,0.07534 0.21593,0.10934c0.07994,0.03216 0.16447,0.06707 0.25635,0.10383c0.09097,0.03583 0.17642,0.06799 0.2582,0.09831c0.07994,0.02849 0.15712,0.05146 0.23155,0.06708c0.07442,0.01562 0.14793,0.02113 0.22052,0.01562c0.07167,-0.00459 0.14518,-0.02389 0.2196,-0.05605c0.10567,-0.04594 0.19663,-0.10842 0.27382,-0.18652c0.07718,-0.07903 0.13874,-0.17734 0.18468,-0.29403c0.04503,-0.11394 0.06984,-0.22788 0.07351,-0.34181c0.00368,-0.11486 -0.02205,-0.23247 -0.0781,-0.35376c-0.04778,-0.10475 -0.11669,-0.19112 -0.20582,-0.26187c-0.08821,-0.06983 -0.20858,-0.13599 -0.36202,-0.19571l-0.31057,-0.12313l-0.317,0.80307l0.3464,0.13691l0.15437,-0.39143l0.08085,0.03216c0.05605,0.02205 0.10475,0.0487 0.14518,0.0827c0.04043,0.03308 0.07443,0.07534 0.10107,0.12404c0.02481,0.0487 0.03676,0.10199 0.03768,0.15988c0.00183,0.05789 -0.01011,0.11945 -0.03492,0.18285c-0.02297,0.05789 -0.05329,0.10475 -0.09097,0.1415c-0.03675,0.03675 -0.07902,0.06432 -0.12496,0.07994c-0.0294,0.01195 -0.06064,0.01838 -0.09188,0.02022c-0.03216,0.00275 -0.07167,-0.00092 -0.11853,-0.01011c-0.04686,-0.00919 -0.10475,-0.02573 -0.17366,-0.04962c-0.06984,-0.02297 -0.15345,-0.05513 -0.25544,-0.09556c-0.10108,-0.03951 -0.18469,-0.07443 -0.25085,-0.10383c-0.06523,-0.02848 -0.11761,-0.05605 -0.15896,-0.08086c-0.04134,-0.02572 -0.07167,-0.05053 -0.09372,-0.07442c-0.02205,-0.02297 -0.03951,-0.0487 -0.05421,-0.07719c-0.02113,-0.04318 -0.03492,-0.09096 -0.03767,-0.14425c-0.00368,-0.0533 0.00643,-0.10843 0.0294,-0.16631c0.04227,-0.10751 0.10199,-0.18194 0.18009,-0.22236c0.07627,-0.04043 0.16999,-0.05238 0.28025,-0.03676l0.16631,-0.41807c-0.09556,-0.02113 -0.19112,-0.02849 -0.28852,-0.02205c-0.09739,0.00643 -0.18928,0.03032 -0.27749,0.07167c-0.09004,0.04042 -0.1709,0.10107 -0.24533,0.17917c-0.07534,0.07902 -0.1369,0.17917 -0.1856,0.30322c-0.04686,0.11853 -0.06984,0.23338 -0.06616,0.34273c0.00276,0.10842 0.02757,0.21592 0.07259,0.32159c0.03308,0.07443 0.07442,0.13875 0.12312,0.19112m11.88661,-4.75437c0.11394,0.23247 0.27106,0.42543 0.46953,0.57428c0.19847,0.14793 0.42818,0.25911 0.6827,0.32895c0.25452,0.07075 0.53201,0.10658 0.82144,0.10658c0.20215,0 0.40521,-0.01654 0.6046,-0.05053c0.20031,-0.034 0.37213,-0.08729 0.51364,-0.15896c0.03399,-0.0193 0.05421,-0.04043 0.0634,-0.0634c0.00735,-0.02022 0.01102,-0.05697 0.01102,-0.12864l0,-0.50261c0,-0.27381 0.00184,-0.52098 0.0046,-0.61287l0.00183,-0.32251c0,-0.02849 -0.01929,-0.05973 -0.0634,-0.05973l-0.00091,0c-0.12313,0.00552 -0.20307,0.00827 -0.23798,0.00827c-0.03033,0 -0.1121,-0.00183 -0.24625,-0.00459c-0.19572,-0.00643 -0.33354,-0.00919 -0.41624,-0.00919c-0.10567,0 -0.1268,0.04043 -0.1268,0.07626c0,0.02022 0.00919,0.06708 0.09832,0.06708c0.07902,0 0.1369,0.00368 0.17274,0.01286c0.06432,0.01287 0.10934,0.03676 0.13139,0.06984c0.02481,0.03491 0.03768,0.09004 0.04043,0.16171c0.00368,0.09189 0.00551,0.33538 0.00551,0.60368l0,0.43002c0,0.07351 -0.02297,0.11945 -0.06983,0.14058c-0.0441,0.02022 -0.09739,0.03308 -0.15712,0.03951c-0.06156,0.00644 -0.13507,0.00919 -0.21868,0.00919c-0.23247,0 -0.44748,-0.04226 -0.63952,-0.12588c-0.19204,-0.0827 -0.35835,-0.20215 -0.49525,-0.35375c-0.13599,-0.15161 -0.2435,-0.33263 -0.31609,-0.53845c-0.07258,-0.20765 -0.11118,-0.43369 -0.11118,-0.67167c0,-0.26646 0.03676,-0.49158 0.10751,-0.668c0.07167,-0.1755 0.17274,-0.31976 0.3023,-0.43002c0.13966,-0.11485 0.28208,-0.1902 0.42358,-0.22419c0.33906,-0.08178 0.77367,-0.06708 1.07597,0.0588c0.17642,0.07259 0.30689,0.15161 0.38499,0.23706c0.0487,0.05146 0.08362,0.10659 0.10291,0.16448c0.02022,0.0588 0.03492,0.12496 0.04503,0.19938c0.01102,0.06984 0.04778,0.08454 0.07626,0.08454c0.03675,0 0.07994,-0.02114 0.07994,-0.1268c0,-0.19296 0.00276,-0.34181 0.00919,-0.4438c0.00643,-0.10199 0.01194,-0.18653 0.01838,-0.25268c0.00275,-0.02573 0.00459,-0.04411 0.00459,-0.0533c0,-0.02389 -0.00827,-0.07994 -0.09188,-0.08545c-0.04595,-0.00276 -0.10108,-0.00919 -0.16723,-0.01838c-0.06616,-0.00827 -0.12956,-0.01929 -0.18929,-0.03124c-0.0248,-0.00643 -0.06615,-0.01378 -0.1222,-0.02113c-0.05513,-0.00735 -0.12588,-0.01654 -0.21134,-0.02573c-0.08637,-0.00827 -0.16906,-0.01562 -0.24808,-0.02021c-0.31976,-0.0193 -0.61838,0 -0.88209,0.05329c-0.19663,0.03951 -0.39878,0.12129 -0.59909,0.24166c-0.23338,0.13966 -0.4291,0.34364 -0.58071,0.60459c-0.15252,0.26279 -0.23062,0.57152 -0.23062,0.91701c0,0.30873 0.05696,0.58255 0.16998,0.81409m5.4628,0.7959l-0.11394,-0.01102c-0.05605,-0.00827 -0.0928,-0.02573 -0.1121,-0.05329c-0.02205,-0.03124 -0.03675,-0.07811 -0.04502,-0.14426c-0.00827,-0.08729 -0.01379,-0.2049 -0.01562,-0.351c-0.00184,-0.14793 -0.00276,-0.36386 -0.00276,-0.64687l0,-1.51057c0,-0.09924 0.00368,-0.18653 0.01011,-0.26279c0.00551,-0.07627 0.01837,-0.13415 0.03859,-0.16907c0.01838,-0.03216 0.05329,-0.05329 0.10475,-0.0634c0.05237,-0.00919 0.09648,-0.01378 0.13231,-0.01378c0.09372,0 0.10291,-0.05329 0.10291,-0.07627c0,-0.06707 -0.09556,-0.06707 -0.1268,-0.06707c-0.0634,0 -0.1755,0.00276 -0.33354,0.00919c-0.11302,0.00275 -0.18744,0.00459 -0.2242,0.00459c-0.04502,0 -0.13231,-0.00184 -0.25911,-0.00459c-0.16539,-0.00643 -0.27657,-0.00919 -0.33538,-0.00919c-0.03767,0 -0.14058,0 -0.14058,0.06707c0,0.02298 0.01103,0.07627 0.10475,0.07627c0.06064,0 0.11301,0.00643 0.15712,0.01746c0.08086,0.01837 0.12404,0.0928 0.13139,0.22879c0.00644,0.07626 0.01011,0.16355 0.01011,0.26279l0,1.51057c0,0.28025 -0.00184,0.49342 -0.00459,0.64136c-0.00368,0.14701 -0.00919,0.26462 -0.0193,0.35191c-0.01378,0.12221 -0.04962,0.1902 -0.1075,0.20215c-0.05422,0.01194 -0.10751,0.01838 -0.15804,0.01838c-0.09005,0 -0.10475,0.04134 -0.10475,0.06707c0,0.034 0.02205,0.07535 0.1222,0.07535c0.06432,0 0.18469,-0.00276 0.36295,-0.00919c0.11761,-0.00276 0.1902,-0.0046 0.21409,-0.0046c0.04226,0 0.1121,0.00184 0.20949,0.0046c0.20674,0.00643 0.37489,0.00919 0.50353,0.00919c0.0974,0 0.11669,-0.04135 0.11669,-0.07535c0,-0.02573 -0.01194,-0.06707 -0.10291,-0.06707c-0.03583,0 -0.07351,-0.00276 -0.11485,-0.00736m0.677,0.14583c0.08086,0 0.16172,-0.00184 0.24717,-0.0046c0.08269,-0.00276 0.14793,-0.00459 0.20398,-0.00459c0.05054,-0.00276 0.08086,-0.0046 0.08913,-0.0046c0.04043,0 0.11853,0.00368 0.23706,0.00919c0.1075,0.00276 0.1902,0.0046 0.24809,0.0046c0.09464,0 0.10842,-0.04778 0.10842,-0.07627c0,-0.02481 -0.01286,-0.06707 -0.10015,-0.06707l-0.06708,0c-0.0588,0 -0.10015,-0.00919 -0.1222,-0.02849c-0.02022,-0.01838 -0.03033,-0.04594 -0.03033,-0.08269c0,-0.06892 0.02206,-0.15896 0.06616,-0.26831l0.26003,-0.67075l1.03738,0.01194l0.36386,0.96846c0,0 0.02297,0.07075 0.04135,0.12313c0.01654,0.04594 0.03583,0.09005 0.09004,0.09005c0.04686,0 0.10016,-0.00276 0.15712,-0.0046c0.06432,-0.00184 0.13324,-0.00459 0.20031,-0.00459l0.43737,0.00919c0.08821,0 0.1461,-0.00276 0.17642,-0.00919c0.05972,-0.01287 0.06524,-0.05054 0.06524,-0.06708c0,-0.01562 -0.00552,-0.06707 -0.08913,-0.06707c-0.06524,0 -0.12864,-0.00644 -0.18653,-0.01746c-0.05696,-0.01287 -0.11669,-0.05146 -0.17641,-0.11486c-0.06065,-0.0634 -0.12956,-0.18652 -0.20399,-0.3657l-0.99786,-2.47903c-0.06983,-0.17734 -0.11577,-0.28944 -0.13783,-0.33446c-0.04869,-0.11394 -0.0928,-0.16539 -0.14242,-0.16539c-0.02113,0 -0.05421,0.00918 -0.08269,0.05145c-0.02114,0.02665 -0.04227,0.07167 -0.07351,0.15069l-1.14763,2.87322c-0.05146,0.12864 -0.10383,0.22512 -0.15621,0.2876c-0.0487,0.05881 -0.11853,0.09464 -0.20766,0.10475c-0.04778,0.00643 -0.09464,0.00919 -0.13874,0.00919c-0.07902,0 -0.08545,0.05145 -0.08545,0.06707c0,0.02849 0.01562,0.07627 0.11669,0.07627zm1.65943,-2.59114l0.41348,1.10812l-0.83064,0.00919l0.41716,-1.11731z"/>
    <text stroke="null" transform="matrix(0.17860634538897371,0,0,0.2272589542341458,30.366416920497592,14.078781979694256) " xml:space="preserve" text-anchor="start" font-family="'Times New Roman', Times, serif" font-size="24" id="svg_63" y="17.086417" x="-22.591381" stroke-opacity="null" stroke-width="0" fill="#6F5C2A">D</text>
   </g>
   <polygon id="svg_31" points="25.708 11.993 25.642 11.6 24.597 11.773 24.506 11.226 25.397 11.078 25.331 10.685 24.441 10.833 24.354 10.304 25.399 10.13 25.334 9.738 23.849 9.984 24.222 12.239" fill="#A8996E"/>
   <g id="svg_32" fill="#A8996E">
    <path id="svg_33" d="m12.07592,24.48901c0.02389,-0.11761 0.02849,-0.23063 0.0147,-0.33997c-0.0147,-0.10842 -0.05053,-0.20582 -0.10934,-0.29495c-0.05053,-0.07534 -0.1075,-0.13598 -0.17274,-0.18193c-0.06524,-0.04594 -0.13507,-0.08269 -0.21042,-0.11118c-0.07442,-0.02848 -0.15252,-0.05053 -0.23522,-0.06707l-0.25176,-0.05146l-0.24533,-0.04961c-0.08178,-0.01654 -0.1608,-0.02665 -0.23982,-0.02849c-0.0781,-0.00276 -0.15437,0.0046 -0.22971,0.02205c-0.07627,0.01746 -0.15161,0.05146 -0.22696,0.10108c-0.0882,0.0588 -0.15987,0.13598 -0.21501,0.23063c-0.05604,0.09464 -0.09555,0.20122 -0.11853,0.31791l-0.16355,0.80951l2.24106,0.45207l0.16263,-0.80859zm-0.39878,-0.03767l-0.06707,0.33079l-1.45912,-0.29495l0.06707,-0.33079c0.0147,-0.07534 0.03859,-0.1369 0.07259,-0.1856c0.034,-0.04778 0.0781,-0.08546 0.1314,-0.11394c0.0294,-0.01562 0.06156,-0.02665 0.09464,-0.03308c0.03491,-0.00643 0.07534,-0.00827 0.1222,-0.00459c0.04778,0.00275 0.10291,0.00919 0.16448,0.02021c0.0634,0.01011 0.13598,0.02389 0.2196,0.04135c0.1709,0.03308 0.29862,0.06524 0.38683,0.09556c0.08821,0.0294 0.15253,0.06891 0.19571,0.11945c0.03768,0.04686 0.06341,0.09923 0.07627,0.1562c0.01194,0.05789 0.01102,0.12405 -0.0046,0.19939zm15.0002,-13.39773c0.00368,0.08637 0.01103,0.16539 0.02573,0.24073c0.01286,0.07535 0.03675,0.14426 0.06799,0.2095c0.03125,0.06524 0.07719,0.12588 0.13507,0.18193c0.0827,0.08086 0.17458,0.14242 0.27658,0.18285c0.10199,0.04227 0.21684,0.06248 0.34364,0.06064c0.12129,-0.00184 0.23615,-0.02297 0.34365,-0.06248c0.1075,-0.03951 0.20582,-0.10842 0.29679,-0.20582c0.0781,-0.08361 0.13323,-0.18009 0.16447,-0.28852c0.03308,-0.10842 0.04778,-0.24533 0.04594,-0.4098l-0.00459,-0.33446l-0.8628,0.01103l0.0046,0.37213l0.41991,-0.00551l0.00184,0.08729c0,0.05972 -0.00644,0.11485 -0.02297,0.16539c-0.01471,0.05053 -0.04043,0.09739 -0.07627,0.14058c-0.03583,0.04135 -0.07994,0.07351 -0.13415,0.09648c-0.05237,0.02297 -0.11394,0.03491 -0.18285,0.03583c-0.06156,0.00092 -0.11669,-0.00918 -0.16539,-0.03032c-0.04778,-0.02021 -0.08821,-0.0487 -0.12037,-0.08545c-0.02297,-0.02205 -0.04043,-0.0487 -0.05421,-0.07718c-0.0147,-0.02849 -0.02665,-0.06708 -0.03584,-0.11394c-0.00918,-0.04686 -0.01562,-0.10659 -0.01929,-0.17917c-0.00368,-0.07259 -0.00735,-0.16356 -0.00919,-0.2729c-0.00092,-0.10842 0,-0.19939 0.00184,-0.27106c0.00275,-0.07167 0.00827,-0.13139 0.01562,-0.17825c0.00827,-0.04687 0.01838,-0.08546 0.03216,-0.11486c0.0147,-0.02848 0.03124,-0.05421 0.05237,-0.07902c0.03124,-0.03675 0.07167,-0.06708 0.11945,-0.08913c0.04778,-0.02297 0.10291,-0.03491 0.16539,-0.03583c0.11486,-0.00184 0.20582,0.02572 0.27382,0.08177c0.06615,0.05513 0.11302,0.13783 0.14058,0.24625l0.44932,-0.00551c-0.01654,-0.09556 -0.04595,-0.18744 -0.08913,-0.27381c-0.04227,-0.08821 -0.09924,-0.16448 -0.17091,-0.23155c-0.07167,-0.06616 -0.15712,-0.11945 -0.25819,-0.15896c-0.10199,-0.03951 -0.21869,-0.05789 -0.35192,-0.05697c-0.12772,0.00276 -0.24165,0.02481 -0.34181,0.06891c-0.10015,0.04411 -0.18928,0.10659 -0.27014,0.1902c-0.05697,0.05789 -0.10015,0.11945 -0.13139,0.18561c-0.03032,0.06524 -0.05054,0.13599 -0.06248,0.21041c-0.01195,0.07535 -0.0193,0.15529 -0.02022,0.24074c-0.00092,0.08637 -0.00092,0.17826 0.00092,0.27657c0.00092,0.09832 0.00276,0.1902 0.00643,0.27566"/>
   </g>
   <polygon id="svg_34" points="42.682 32.044 43.069 32.133 43.304 31.124 45.141 31.55 45.243 31.116 43.017 30.599" fill="#A8996E"/>
   <polygon id="svg_35" points="11.781 28.869 11.387 28.919 11.516 29.947 9.645 30.185 9.701 30.627 11.969 30.34" fill="#A8996E"/>
   <path id="svg_36" d="m13.45636,36.59308c0.07351,-0.0441 0.13966,-0.09004 0.19755,-0.13782c0.05881,-0.0487 0.10842,-0.102 0.15069,-0.16172c0.04135,-0.05881 0.07259,-0.12864 0.09372,-0.20674c0.03124,-0.11118 0.04043,-0.22052 0.02757,-0.32895c-0.01195,-0.10934 -0.05054,-0.2196 -0.11486,-0.33354c-0.06432,-0.11393 -0.13966,-0.20306 -0.22603,-0.2683c-0.08637,-0.06524 -0.18469,-0.11302 -0.29495,-0.14426c-0.07902,-0.02205 -0.15437,-0.0294 -0.22604,-0.0248c-0.07167,0.00459 -0.14334,0.02021 -0.21593,0.04502c-0.07258,0.02573 -0.14609,0.05789 -0.22144,0.09832c-0.07534,0.04042 -0.15528,0.08453 -0.24165,0.13415c-0.08545,0.04778 -0.16447,0.09464 -0.23706,0.13874c-0.07351,0.04411 -0.14059,0.09005 -0.19755,0.13967c-0.05789,0.04869 -0.10843,0.10291 -0.14978,0.16263c-0.04134,0.05881 -0.07258,0.12772 -0.09464,0.20674c-0.03032,0.11026 -0.03951,0.2196 -0.02756,0.32803c0.01194,0.1075 0.04962,0.21776 0.11393,0.3317c0.06432,0.11302 0.13967,0.20306 0.22696,0.26922c0.08637,0.06616 0.1856,0.11577 0.29587,0.14518c0.07902,0.02205 0.15436,0.03032 0.22603,0.02481c0.07259,-0.00552 0.14426,-0.02022 0.21593,-0.04595c0.07075,-0.02572 0.14426,-0.0588 0.2196,-0.10015c0.07535,-0.03951 0.15621,-0.08453 0.24166,-0.13323c0.08545,-0.04778 0.16447,-0.09464 0.23798,-0.13875m-0.69557,-0.11945c-0.06431,0.03308 -0.11945,0.05697 -0.16355,0.07259c-0.04594,0.01654 -0.08453,0.02481 -0.11669,0.02665c-0.03124,0.00275 -0.06248,0 -0.09372,-0.00643c-0.04778,-0.01011 -0.09281,-0.03124 -0.13691,-0.06249c-0.04411,-0.03215 -0.08086,-0.07442 -0.1121,-0.12863c-0.03032,-0.05421 -0.04778,-0.10751 -0.05146,-0.1608c-0.00459,-0.05329 0.00184,-0.10199 0.01746,-0.14793c0.00919,-0.03033 0.02297,-0.05973 0.04135,-0.08638c0.01746,-0.02756 0.04502,-0.05604 0.08086,-0.08729c0.03675,-0.03032 0.08545,-0.06523 0.14701,-0.10382c0.05973,-0.03768 0.13783,-0.08362 0.23247,-0.13783c0.09464,-0.05329 0.17458,-0.09648 0.23798,-0.12956c0.0634,-0.03216 0.11853,-0.05697 0.16355,-0.07259c0.04503,-0.01562 0.08362,-0.02389 0.11578,-0.02481c0.03308,-0.00183 0.06524,0.00092 0.09648,0.00827c0.04686,0.01011 0.0928,0.03033 0.13599,0.06157c0.04226,0.03032 0.07994,0.07259 0.11026,0.1268c0.03032,0.05329 0.04778,0.1075 0.05329,0.16171c0.00459,0.05421 -0.00092,0.10383 -0.01746,0.14977c-0.01011,0.02941 -0.02389,0.05789 -0.04227,0.08454c-0.01745,0.02664 -0.04502,0.05513 -0.08177,0.08545c-0.03676,0.03124 -0.08545,0.06524 -0.1461,0.10383c-0.06064,0.03859 -0.13874,0.08361 -0.23247,0.13783c-0.09464,0.05329 -0.17549,0.09739 -0.23798,0.12955" fill="#A8996E"/>
   <polygon id="svg_37" points="12.684 33.024 11.235 33.06 12.42 32.225 12.303 31.871 9.939 32.005 10.086 32.448 11.566 32.334 10.328 33.183 10.433 33.5 11.933 33.444 10.674 34.232 10.82 34.674 12.8 33.378" fill="#A8996E"/>
   <polygon id="svg_38" points="41.82 34.34 42.189 34.49 42.588 33.508 43.101 33.718 42.762 34.553 43.131 34.703 43.471 33.868 43.967 34.07 43.568 35.05 43.936 35.201 44.503 33.806 42.386 32.946" fill="#A8996E"/>
   <polygon id="svg_39" points="41.139 35.61 42.33 36.35 40.66 36.378 40.45 36.716 42.391 37.922 42.625 37.544 41.438 36.805 43.105 36.775 43.316 36.438 41.374 35.23" fill="#A8996E"/>
   <polygon id="svg_40" points="15.659 38.063 14.58 38.96 15.08 37.366 14.825 37.06 13.068 38.521 13.353 38.865 14.429 37.97 13.932 39.561 14.186 39.867 15.944 38.406" fill="#A8996E"/>
   <path id="svg_41" d="m29.63754,44.61182c-0.06431,-0.07718 -0.13874,-0.13415 -0.22419,-0.16998c0.07167,-0.04595 0.12863,-0.10935 0.17182,-0.18653c0.0441,-0.0781 0.06156,-0.17917 0.05054,-0.3023c-0.00827,-0.09648 -0.03308,-0.18285 -0.07443,-0.26003c-0.04043,-0.07718 -0.09464,-0.1415 -0.16172,-0.19388c-0.06615,-0.05237 -0.14334,-0.09096 -0.23154,-0.11485c-0.08821,-0.02481 -0.18193,-0.03308 -0.28209,-0.02389c-0.09556,0.00827 -0.18469,0.03032 -0.26646,0.06799c-0.08178,0.03676 -0.15069,0.08546 -0.20766,0.14702c-0.05697,0.05972 -0.10016,0.13231 -0.1314,0.21501c-0.03032,0.08361 -0.04226,0.17641 -0.03583,0.27932l0.41532,-0.03583c-0.00276,-0.08821 0.01929,-0.15804 0.06799,-0.21041c0.04778,-0.05238 0.11118,-0.0827 0.1902,-0.08913c0.07443,-0.00643 0.1415,0.01194 0.20123,0.05697c0.05972,0.0441 0.09372,0.11485 0.10199,0.20949c0.00643,0.08178 -0.01011,0.15161 -0.04962,0.2095c-0.04043,0.0588 -0.11118,0.09188 -0.21409,0.10015l-0.06064,0.00643l0.03124,0.36111l0.06064,-0.00643c0.10291,-0.00735 0.18377,0.01378 0.24441,0.06523c0.05881,0.05146 0.09373,0.12589 0.102,0.22236c0.00918,0.102 -0.01287,0.18285 -0.06616,0.24258c-0.05329,0.0588 -0.12405,0.09188 -0.21317,0.10015c-0.04043,0.00368 -0.07994,0.00092 -0.11761,-0.00735c-0.0386,-0.00919 -0.07351,-0.02389 -0.102,-0.04594c-0.03032,-0.02205 -0.05605,-0.05146 -0.07626,-0.08729c-0.02021,-0.03583 -0.03308,-0.07902 -0.03951,-0.12956l-0.41624,0.03584c0.01287,0.11853 0.04227,0.21868 0.09097,0.29862c0.04778,0.08086 0.1075,0.1461 0.17917,0.1948c0.07167,0.0487 0.15161,0.08177 0.23982,0.10015c0.08913,0.01746 0.18009,0.02297 0.27382,0.0147c0.09739,-0.00827 0.18928,-0.03032 0.27473,-0.06524c0.08453,-0.03491 0.15804,-0.08361 0.21869,-0.14609c0.06156,-0.06248 0.1075,-0.13783 0.13874,-0.22604c0.03124,-0.08913 0.04135,-0.1902 0.03216,-0.3023c-0.01195,-0.13874 -0.05054,-0.24717 -0.11486,-0.32435" fill="#A8996E"/>
   <polygon id="svg_42" points="31.307 42.984 30.953 43.489 31.061 43.926 31.415 43.42 31.859 45.203 32.263 45.103 31.713 42.884" fill="#A8996E"/>
   <polygon id="svg_43" points="17.25 40.527 16.797 40.609 17.012 39.434 16.613 39.101 16.354 40.678 15.191 40.891 15.607 41.238 16.863 40.99 16.227 41.754 16.568 42.04 18.033 40.285 17.69 39.999" fill="#A8996E"/>
   <path id="svg_44" d="m26.78408,43.59705c-0.05973,-0.06432 -0.1314,-0.11485 -0.21501,-0.15253c-0.08453,-0.03767 -0.17642,-0.05972 -0.27565,-0.06799c-0.10016,-0.00643 -0.1948,0.00276 -0.28393,0.02848c-0.0882,0.02481 -0.16722,0.06616 -0.23522,0.12129c-0.06799,0.05697 -0.12404,0.12772 -0.16631,0.21317c-0.04319,0.08546 -0.06891,0.18469 -0.07718,0.29587c-0.00735,0.10567 0.00184,0.20306 0.03032,0.28852c0.02756,0.08545 0.06707,0.15896 0.11853,0.22052c0.05146,0.06248 0.11118,0.11118 0.18193,0.14793c0.06983,0.03584 0.14334,0.05697 0.2196,0.06248c0.02849,0.00184 0.05697,0.00184 0.08546,0c0.0294,-0.00183 0.05788,-0.00735 0.08637,-0.01654l-0.54212,0.90598l0.45023,0.03308l0.55498,-0.94916c0.05881,-0.10108 0.11118,-0.19847 0.15529,-0.29403c0.0441,-0.09556 0.07075,-0.19572 0.0781,-0.30046c0.00827,-0.1121 -0.00184,-0.21501 -0.03216,-0.30414c-0.02848,-0.09005 -0.07351,-0.16723 -0.13323,-0.23247m-0.24993,0.50996c-0.00735,0.10567 -0.04134,0.18652 -0.10199,0.23982c-0.0588,0.05329 -0.13139,0.07718 -0.21684,0.07075c-0.08913,-0.00735 -0.15805,-0.04227 -0.20674,-0.10475c-0.04962,-0.06432 -0.06984,-0.14793 -0.06157,-0.25084c0.00735,-0.10567 0.04135,-0.18561 0.10108,-0.2389c0.0588,-0.05421 0.13139,-0.07719 0.21684,-0.07075c0.08545,0.00551 0.15345,0.03951 0.2049,0.10199c0.05054,0.06156 0.07259,0.14518 0.06432,0.25268" fill="#A8996E"/>
   <polygon id="svg_45" points="23.26 43.305 23.159 43.744 23.704 43.453 23.293 45.243 23.699 45.338 24.211 43.109 23.804 43.015" fill="#A8996E"/>
   <polygon id="svg_46" points="19.483 42.888 19.827 43.932 20.872 43.59 20.529 42.544" fill="#A8996E"/>
   <polygon id="svg_47" points="43.172 29.659 43.569 29.688 43.644 28.654 45.526 28.791 45.558 28.345 43.28 28.18" fill="#A8996E"/>
   <path id="svg_48" d="m32.65879,32.32634l0.22971,-0.27473l-0.17274,-0.14426l0.45666,-0.54211l-0.47779,-0.40062l-0.45575,0.54212l-0.17182,-0.14518l-0.20215,0.23982c0.00368,0.00184 0.0046,0.00367 0.00827,0.00643c0.24349,0.17917 0.54855,0.40429 0.78561,0.71853" fill="#A8996E"/>
   <polygon id="svg_49" points="43.287 27.178 43.684 27.145 43.598 26.09 44.152 26.044 44.225 26.943 44.622 26.911 44.549 26.012 45.083 25.967 45.169 27.024 45.566 26.992 45.443 25.491 43.165 25.676" fill="#A8996E"/>
   <g id="svg_50" fill="#A8996E">
    <path id="svg_51" d="m22.54794,35.69389l-1.15498,-2.39174l-0.8922,0l0,0.10934c0,0 1.28914,1.43799 2.04718,2.2824m8.4777,-1.87223l0.47964,-0.56968l0.22052,0.1856l0.15804,-0.18836c-0.07718,-0.28208 -0.31608,-0.4732 -0.67627,-0.73783c-0.02205,-0.01654 -0.04226,-0.03308 -0.06432,-0.04962l-0.23981,0.28484l0.21684,0.18285l-0.47871,0.56969l0.38407,0.32251z"/>
    <path id="svg_52" d="m30.88166,35.10528l0.00092,0.00092l-0.00184,0l-0.26095,0.70108l1.37735,0l-0.11762,-0.63033c0.4631,-0.22879 0.82145,-0.80766 0.89312,-1.53171c0.00643,-0.06064 0.00919,-0.11945 0.00919,-0.17733c0.00092,-0.02481 -0.00092,-0.05054 -0.00092,-0.07627c-0.00184,-0.0294 -0.00184,-0.05972 -0.0046,-0.08729c-0.00275,-0.03308 -0.00735,-0.06432 -0.01194,-0.09556c-0.00276,-0.01929 -0.0046,-0.03951 -0.00827,-0.0588c-0.00551,-0.03492 -0.0147,-0.07076 -0.02297,-0.10475c-0.00368,-0.01195 -0.0046,-0.02573 -0.00919,-0.03767c-0.01103,-0.03768 -0.02389,-0.07443 -0.03584,-0.11027c-0.00275,-0.00735 -0.00551,-0.01562 -0.00918,-0.02389c-0.01379,-0.03859 -0.03033,-0.07626 -0.04778,-0.11118c-0.00184,-0.00459 -0.0046,-0.00827 -0.00552,-0.01194c-0.01837,-0.03951 -0.03859,-0.07626 -0.05972,-0.1121c-0.00184,-0.00092 -0.00184,-0.00368 -0.00276,-0.00551c-0.02205,-0.03768 -0.04502,-0.07443 -0.06983,-0.10843c-0.21593,-0.30965 -0.51639,-0.53109 -0.76815,-0.71669c-0.00735,-0.00552 -0.01287,-0.01011 -0.0193,-0.0147c-0.06799,-0.05054 -0.13415,-0.09924 -0.19479,-0.14702l-0.38867,0.48791c0.05513,0.0441 0.11853,0.09004 0.18101,0.1369c0.01746,0.01287 0.034,0.02573 0.05237,0.03951c0.29128,0.21409 0.56877,0.42359 0.70935,0.72313c0,0.00092 0.00276,0.0046 0.00276,0.00735c0.02664,0.05697 0.04778,0.11945 0.06156,0.18469c0.00643,0.03032 0.01286,0.06156 0.01929,0.0928c0.00184,0.02481 0.00368,0.04686 0.00552,0.07075c0.00459,0.06157 0.00551,0.12589 -0.00092,0.19388c-0.06248,0.61287 -0.42451,1.14396 -0.98041,1.09342l-1.37275,-1.15314l-0.32986,0.39326l1.41226,1.18898l-0.00092,0z"/>
   </g>
   <polygon id="svg_53" points="20.499 32.878 20.499 32.962 22.699 32.962 21.46 32.161" fill="#A8996E"/>
   <polygon id="svg_54" points="23.85 32.962 26.09 32.962 26.09 32.877 25.162 32.208" fill="#A8996E"/>
   <polygon id="svg_55" points="23.075 36.062 23.075 33.303 21.742 33.303" fill="#A8996E"/>
   <polygon id="svg_56" points="23.949 35.731 26.091 33.412 26.091 33.303 25.232 33.303" fill="#A8996E"/>
   <polygon id="svg_57" points="23.383 33.302 23.383 36.125 24.875 33.302" fill="#A8996E"/>
   <polygon id="svg_58" points="30.474 35.09 29.468 34.244 29.203 34.825 29.941 35.444" fill="#A8996E"/>
   <polygon id="svg_59" points="21.896 32.047 23.25 32.921 24.772 32.047" fill="#A8996E"/>
  </g>
 </g>
</svg>